<svg version="1.2" xmlns="http://www.w3.org/2000/svg" viewBox="0 0 1024 1024" width="1024" height="1024">
	<title>artst_path</title>
	<style>
		.s0 { fill: none;stroke: #4f7bd5;stroke-linecap: round;stroke-linejoin: round;stroke-width: .7 } 
		.s1 { fill: none;stroke: #ffc05f;stroke-linecap: round;stroke-linejoin: round;stroke-width: .7 } 
		.s2 { fill: none;stroke: #34cff0;stroke-linecap: round;stroke-linejoin: round;stroke-width: .7 } 
		.s3 { fill: none;stroke: #d3b997;stroke-linecap: round;stroke-linejoin: round;stroke-width: .7 } 
		.s4 { fill: none;stroke: #f03fa7;stroke-linecap: round;stroke-linejoin: round;stroke-width: .7 } 
		.s5 { fill: none;stroke: #3957b6;stroke-linecap: round;stroke-linejoin: round;stroke-width: .7 } 
	</style>
	<g id="Layer 1">
		<path fill-rule="evenodd" class="s0" d="m511.9 111.6v102.3"/>
		<path fill-rule="evenodd" class="s1" d="m709.3 194.2l-36.2 62.9"/>
		<path fill-rule="evenodd" class="s2" d="m791.2 375.2l83.3-48"/>
		<path fill-rule="evenodd" class="s3" d="m834.4 536.6h69"/>
		<path fill-rule="evenodd" class="s4" d="m791.2 697.9l91.8 52.9"/>
		<path fill-rule="evenodd" class="s1" d="m673.1 816.1l41.5 71.9"/>
		<path fill-rule="evenodd" class="s2" d="m511.9 944.3v-85.1"/>
		<path fill-rule="evenodd" class="s4" d="m321.6 866.2l29-50.1"/>
		<path fill-rule="evenodd" class="s0" d="m151.9 744.5l80.7-46.6"/>
		<path fill-rule="evenodd" class="s1" d="m92.3 536.6h97"/>
		<path fill-rule="evenodd" class="s3" d="m160.6 333.7l71.9 41.5"/>
		<path fill-rule="evenodd" class="s2" d="m314.7 195.1l35.9 61.9"/>
		<path fill-rule="evenodd" class="s5" d="m513.1 751.1l-23.1-1.2-21.3-3.3-20.5-5.3-19.7-7.2-18.7-9-17.6-10.8-16.6-12.3-15.2-13.9-13.8-15.2-12.4-16.5-10.7-17.7-9.1-18.8-7.2-19.6-5.3-20.6-3.2-21.2-1.1-22.2 0.4-13.7 1.4-14 2.3-13.7 3.1-13.5 5.5-17.4 6.8-16.5 8-15.8 9.2-15 10.4-14 11.4-13.1 12.3-12.1 13.3-11.1 14.1-9.9 14.9-8.8 15.6-7.6 16.1-6.4 16.7-5 17.2-3.6 17.6-2.2 17.9-0.8 22 1.1 21.2 3.3 20.5 5.3 19.7 7.2 18.7 9 17.7 10.8 16.5 12.3 15.2 13.9 13.9 15.2 12.3 16.6 10.8 17.7 9 18.7 7.3 19.7 5.2 20.5 3.3 21.2 1.1 22-1.1 21.9-3.3 21.2-5.2 20.6-7.3 19.6-9 18.8-10.8 17.6-12.3 16.6-13.9 15.2-15.2 13.9-16.5 12.3-17.7 10.8-18.7 9-19.7 7.2-20.5 5.3-21.2 3.3-23.2 1.2z"/>
		<path id="모양 1" fill-rule="evenodd" class="s5" d="m622 480c-1.7 0-3-1.3-3-3 0-1.7 1.3-3 3-3 1.7 0 3 1.3 3 3 0 1.7-1.3 3-3 3z"/>
		<path fill-rule="evenodd" class="s5" d="m399.4 558.8l2.4 9.8 3 9.5 4.2 9 4.6 8.7 5.5 8.1 6 7.7 6.7 7 7.1 6.5 7.9 5.8 8.1 5.2 8.8 4.2 8.9 4.1 9.5 2.5 9.7 2.5 9.9 1.3 10.1 0.5 10.1-0.5 10-1.3 9.6-2.2 9.5-2.8 8.9-3.9 8.7-4.4 8.2-5.2 7.8-5.8 7.2-6.5 6.7-7 6.1-7.7 5.4-8.1 4.7-8.7 4-9 3.2-9.5 2-8.9"/>
		<path fill-rule="evenodd" class="s5" d="m308 470.8l4.1-9.3 4.9-8.8 5.8-8.3 6.5-7.7 7.3-7.1 7.9-6.3 8.8-5.6 12.1-6.1 13-4.4 13.3-2.6 11.9-0.8h3.2l4.7 0.1 7.3 0.7 3.3 0.6 10.1 2.2 12.2 4.1 11.2 5.3 10.6 6.7 9.6 7.8 8.6 9 7.5 9.9 6.3 10.9 5.1 11.9 2.8 9.5 2.1 9.3 1 9.8v9.9"/>
	</g>
</svg>