<?xml version="1.0" encoding="utf-8"?>
<svg version="1.2" xmlns="http://www.w3.org/2000/svg" viewBox="0 0 1024 1024" width="1024" height="1024">
  <title>artst_mask_3</title>
  <style>
		.s0 { fill: #3957b6 } 
		.s1 { fill: #d3b997 } 
		.s2 { fill: #ffc05f } 
		.s3 { fill: #f03fa7 } 
		.s4 { fill: #34cff0 } 
		.s5 { fill: #4f7bd5 } 
	</style>
  <g id="mask1">
    <path class="s0" d="m522.9 490.5c-51.6 0-96.3-36.7-106.2-87.3-0.9-5 0.1-10.2 3-14.4 2.8-4.3 7.2-7.2 12.2-8.1q1.8-0.4 3.7-0.4c9.1 0 17 6.5 18.8 15.5 6.3 32.6 35.2 56.3 68.4 56.3 33.3 0 62.1-23.7 68.5-56.3 1.8-9 9.7-15.5 18.8-15.5q1.9 0 3.7 0.3c5.1 1 9.4 3.9 12.3 8.2 2.8 4.2 3.8 9.3 2.9 14.4-9.9 50.6-54.6 87.3-106.2 87.3z"/>
    <path class="s0" d="m608.1 358c12.1 0 21.9-9.9 21.9-22 0-12.2-9.8-22-21.9-22-12.2 0-22 9.8-22 22 0 12.1 9.8 22 22 22z"/>
    <path class="s0" d="m143.7 766l-16.6 0.9c-1.1 0.1-2 1-2 2l-0.9 22.8-50.2-0.6-8.8-27.4c-0.3-0.9-1.2-1.5-2.1-1.4l-17.1 0.9c-1.4 0.1-2.3 1.5-1.9 2.8l25.9 80.2c0.6 1.9 2.5 3.1 4.5 2.8l65-7.9c2-0.3 3.6-1.9 3.7-4l2.8-69c0-1.2-1-2.2-2.3-2.1zm-20.2 42.8l-0.7 16.7-36.2 4.4-7-21.5z"/>
    <path class="s0" d="m183.3 869.7l0.3-12.9c0-1.1-0.9-2.1-2.1-2.1l-20.7-0.3v-7.1c0-1.1-1-2.1-2.1-2.1h-13.2c-1.2 0-2.1 1-2.1 2.1v6.9l-21.7-0.3c-1.2 0-2.1 1-2.1 2.1v13.1c0 1.1 0.9 2 2 2l11.1 0.2-10 12.2c-0.8 0.9-0.6 2.2 0.3 2.9l10.2 8.1c0.9 0.8 2.2 0.6 3-0.3l13.9-17c0.8-0.9 2.2-1 3.1-0.2l18.8 16.9c0.8 0.8 2.2 0.7 2.9-0.1l8.7-9.8c0.8-0.9 0.7-2.2-0.2-2.9l-10.4-9.4 8.2 0.1c1.1 0 2.1-0.9 2.1-2.1z"/>
    <path class="s0" d="m172.6 771h-14.8c-1.2 0-2.1 0.9-2.1 2.1v59.1c0 1.2 0.9 2.1 2.1 2.1h14.8c1.1 0 2.1-0.9 2.1-2.1v-59.1c0-1.2-1-2.1-2.1-2.1z"/>
    <path class="s0" d="M 122.2 986.6 C 122.2 991.5 128 995 136.9 995 C 145.9 995 151.7 991.5 151.7 986.6 L 151.7 985 C 151.7 980.1 145.9 976.6 136.9 976.6 C 128 976.6 122.2 980.1 122.2 985 L 122.2 986.6 Z M 143.7 968 C 138.4 968.5 134.2 968.8 128.7 968.9 L 128.7 959.3 L 123.7 959.3 L 123.7 969 L 114.1 969 L 114.1 973.4 C 129.9 973.4 136 973 144.1 972.2 L 143.7 968 Z M 151.6 975.2 L 151.6 963.5 L 158.3 963.5 L 158.3 959.1 L 151.6 959.1 L 151.6 946.8 L 146.6 946.8 L 146.6 975.2 L 151.6 975.2 Z M 127.2 985.2 C 127.2 983.1 130.7 980.5 137 980.5 C 143.2 980.5 146.7 983.1 146.7 985.2 L 146.7 986.3 C 146.7 988.4 143.2 991 137 991 C 130.7 991 127.2 988.4 127.2 986.3 L 127.2 985.2 Z M 139.3 965.2 C 140 962.2 140.4 957.8 140.4 954.5 L 140.4 948.8 L 117.3 948.8 L 117.3 953.2 L 135.4 953.2 L 135.4 955.2 C 135.4 957.8 135.1 961.1 134.3 964.6 L 139.3 965.2 Z M 188 964.9 C 190.7 966.3 194.2 968 198.4 969.6 L 200.4 965.5 C 196.6 964.1 192.8 962.4 189.6 960.6 C 185.4 958.4 184.9 956.2 184.8 953.7 L 198.4 953.7 L 198.4 949.4 L 166.2 949.4 L 166.2 953.7 L 179.7 953.7 C 179.7 956.2 179.1 958.4 174.9 960.6 C 171.7 962.4 167.9 964.1 164.1 965.5 L 166.1 969.7 C 170.3 968 173.8 966.4 176.6 965 C 180 963.3 181.7 962 182.2 960.8 L 182.3 960.8 C 182.9 962 184.6 963.2 188 964.9 Z M 184.8 993.8 L 184.8 977.6 L 203.9 977.6 L 203.9 973.4 L 160.6 973.4 L 160.6 977.6 L 179.7 977.6 L 179.7 993.8 L 184.8 993.8 Z M 223 972.5 C 230.8 972.5 235.6 967.5 235.6 962.3 L 235.6 959.9 C 235.6 954.7 230.8 949.7 223 949.7 C 215.3 949.7 210.5 954.7 210.5 959.9 L 210.5 962.3 C 210.5 967.5 215.3 972.5 223 972.5 Z M 223 968.1 C 218.8 968.1 215.4 965.3 215.4 962 L 215.4 960.2 C 215.4 956.8 218.8 954 223 954 C 227.3 954 230.7 956.8 230.7 960.2 L 230.7 962 C 230.7 965.3 227.3 968.1 223 968.1 Z M 238.8 978.5 C 230.3 979.3 221.7 979.6 208.2 979.6 L 208.2 984 C 221.6 984 230.6 983.6 239.2 982.7 L 238.8 978.5 Z M 246.8 993.8 L 246.8 946.7 L 241.7 946.7 L 241.7 993.8 L 246.8 993.8 Z M 291.6 969.5 L 291.6 948.6 L 286.6 948.6 L 286.6 955.4 L 274.5 955.4 L 274.5 948.6 L 269.6 948.6 L 269.6 969.5 L 291.6 969.5 Z M 293.2 977 L 293.2 972 L 288.2 972 L 288.2 977 L 275.3 977 L 275.3 981.2 L 288.1 981.2 C 288 983.2 286.9 984.5 283.9 985.9 C 281 987.2 277.9 988.4 273.4 990 L 275.2 994.1 C 279.1 992.7 282.4 991.4 285.3 990.1 C 288.1 988.9 290 987.6 290.7 986.4 C 291.5 987.6 293.3 988.9 296.1 990.1 C 298.9 991.3 302.3 992.6 306.1 994.1 L 308 990 C 303.3 988.4 300.6 987.3 297.5 985.9 C 294.3 984.5 293.4 983.2 293.2 981.2 L 306 981.2 L 306 977 L 293.2 977 Z M 305.5 972.8 L 305.5 946.7 L 300.5 946.7 L 300.5 972.8 L 305.5 972.8 Z M 274.5 959.7 L 286.6 959.7 L 286.6 965.2 L 274.5 965.2 L 274.5 959.7 Z M 313 983.3 L 313 987.6 L 356.2 987.6 L 356.2 983.3 L 313 983.3 Z M 334.6 975 C 343.2 975 350.4 970.6 350.4 963.5 L 350.4 961 C 350.4 953.9 343.2 949.5 334.6 949.5 C 326 949.5 318.8 953.9 318.8 961 L 318.8 963.5 C 318.8 970.6 326 975 334.6 975 Z M 334.6 953.8 C 340.5 953.8 345.5 956.8 345.5 961.3 L 345.5 963.2 C 345.5 967.8 340.5 970.7 334.6 970.7 C 328.7 970.7 323.7 967.8 323.7 963.2 L 323.7 961.3 C 323.7 956.8 328.7 953.8 334.6 953.8 Z M 378.6 975.7 L 378.6 983.3 L 359.5 983.3 L 359.5 987.6 L 402.7 987.6 L 402.7 983.3 L 383.6 983.3 L 383.6 975.7 L 397.5 975.7 L 397.5 971.4 L 370.6 971.4 L 370.6 965.2 L 396.4 965.2 L 396.4 950.5 L 365.3 950.5 L 365.3 954.8 L 391.4 954.8 L 391.4 960.9 L 365.6 960.9 L 365.6 975.7 L 378.6 975.7 Z M 432.1 981.4 C 439.3 981.4 445.1 981.2 450 980.7 L 449.7 976.6 C 447.5 976.8 445.2 977 443.1 977.1 L 443.1 955.4 L 448 955.4 L 448 951.2 L 420.5 951.2 L 420.5 955.4 L 425.4 955.4 L 425.4 977.2 L 420 977.2 L 420 981.4 L 432.1 981.4 Z M 458.2 993.9 L 458.2 946.8 L 453.2 946.8 L 453.2 993.9 L 458.2 993.9 Z M 430.3 955.4 L 438.1 955.4 L 438.1 977.2 L 430.3 977.2 L 430.3 955.4 Z M 504.5 993.9 L 504.5 946.9 L 499.4 946.9 L 499.4 963.4 L 490.4 963.4 C 490.3 954.6 485.3 950.1 478.5 950.1 C 471.6 950.1 466.7 954.7 466.7 963.7 L 466.7 969 C 466.7 978 471.6 982.6 478.5 982.6 C 485.4 982.6 490.4 978 490.4 969 L 490.4 967.8 L 499.4 967.8 L 499.4 993.9 L 504.5 993.9 Z M 478.5 978.1 C 474.9 978.1 471.6 975.5 471.6 968.3 L 471.6 964.4 C 471.6 957.2 474.9 954.7 478.5 954.7 C 482.2 954.7 485.5 957.2 485.5 964.4 L 485.5 968.3 C 485.5 975.5 482.2 978.1 478.5 978.1 Z M 555.8 963.6 L 548.5 963.6 L 548.5 946.9 L 543.5 946.9 L 543.5 993.9 L 548.5 993.9 L 548.5 968 L 555.8 968 L 555.8 963.6 Z M 519.6 950.8 L 514.5 950.8 L 514.5 981.1 L 521.2 981.1 C 528.9 981.1 534.2 980.8 540.3 979.7 L 539.7 975.3 C 534.2 976.3 528.7 976.7 522.1 976.7 L 519.6 976.7 L 519.6 950.8 Z M 558.1 970.6 L 558.1 974.9 L 601.3 974.9 L 601.3 970.6 L 558.1 970.6 Z M 569.4 979.2 L 564.4 979.2 L 564.4 993.4 L 596 993.4 L 596 989 L 569.4 989 L 569.4 979.2 Z M 564.7 948.7 L 564.7 965.2 L 595.1 965.2 L 595.1 960.9 L 569.7 960.9 L 569.7 948.7 L 564.7 948.7 Z M 630.7 950.1 C 623.8 950.1 618.8 954.7 618.8 963.7 L 618.8 969 C 618.8 978 623.8 982.6 630.7 982.6 C 637.6 982.6 642.5 978 642.5 969 L 642.5 963.7 C 642.5 954.7 637.6 950.1 630.7 950.1 Z M 630.7 978.1 C 627 978.1 623.7 975.5 623.7 968.3 L 623.7 964.4 C 623.7 957.2 627 954.7 630.7 954.7 C 634.3 954.7 637.7 957.2 637.7 964.4 L 637.7 968.3 C 637.7 975.5 634.3 978.1 630.7 978.1 Z M 661.5 963.9 L 654.3 963.9 L 654.3 946.8 L 649.2 946.8 L 649.2 993.9 L 654.3 993.9 L 654.3 968.2 L 661.5 968.2 L 661.5 963.9 Z M 702.9 994 L 702.9 946.9 L 697.8 946.9 L 697.8 994 L 702.9 994 Z M 678.1 950.1 C 671.3 950.1 666.2 954.8 666.2 963.8 L 666.2 969.1 C 666.2 978.1 671.3 982.7 678.1 982.7 C 685 982.7 690 978.1 690 969.1 L 690 963.8 C 690 954.8 685 950.1 678.1 950.1 Z M 678.1 978.2 C 674.5 978.2 671.1 975.6 671.1 968.4 L 671.1 964.5 C 671.1 957.3 674.5 954.7 678.1 954.7 C 681.8 954.7 685.2 957.3 685.2 964.5 L 685.2 968.4 C 685.2 975.6 681.8 978.2 678.1 978.2 Z M 748.7 994.3 L 748.7 990.2 L 721.5 990.2 L 721.5 986.6 L 747.3 986.6 L 747.3 974.8 L 716.3 974.8 L 716.3 979 L 742.4 979 L 742.4 982.5 L 716.6 982.5 L 716.6 994.3 L 748.7 994.3 Z M 710.3 967 L 710.3 971.1 L 753.5 971.1 L 753.5 967 L 710.3 967 Z M 716.7 948.2 L 716.7 963.3 L 747.2 963.3 L 747.2 959 L 721.7 959 L 721.7 952.4 L 746.9 952.4 L 746.9 948.2 L 716.7 948.2 Z M 772.7 972.8 C 780.4 972.8 785.2 967.8 785.2 962.5 L 785.2 960.2 C 785.2 954.9 780.4 949.9 772.7 949.9 C 765 949.9 760.2 954.9 760.2 960.2 L 760.2 962.5 C 760.2 967.8 765 972.8 772.7 972.8 Z M 772.7 968.4 C 768.4 968.4 765 965.5 765 962.2 L 765 960.5 C 765 957 768.4 954.3 772.7 954.3 C 777 954.3 780.4 957 780.4 960.5 L 780.4 962.2 C 780.4 965.5 777 968.4 772.7 968.4 Z M 788.4 978.8 C 779.9 979.6 771.4 979.9 757.9 979.8 L 757.9 984.2 C 771.3 984.2 780.3 983.9 788.9 983 L 788.4 978.8 Z M 796.3 994.1 L 796.3 947 L 791.3 947 L 791.3 994.1 L 796.3 994.1 Z M 824.8 986.4 C 824.8 991.4 830.1 995.4 839 995.4 C 847.9 995.4 853.2 991.4 853.2 986.4 L 853.2 984.4 C 853.2 979.4 847.9 975.4 839 975.4 C 830.1 975.4 824.8 979.4 824.8 984.4 L 824.8 986.4 Z M 829.7 963.2 C 830 963.9 831.1 965.1 832.6 966.3 C 835.1 968.4 837.4 970.4 840.1 972.4 L 843 968.8 C 840 966.7 837.1 964.3 834.7 962.1 C 832.3 959.9 832.1 958.2 832.1 955 L 832.1 949 L 827 949 L 827 955.2 C 827 958.8 826.2 960.7 823.6 963.3 C 821.8 965.1 818.7 967.8 815.4 970.3 L 818.4 973.9 C 821.1 971.8 824.1 969.2 826.2 967.3 C 827.8 965.8 829.4 964 829.7 963.2 Z M 848.2 986.1 C 848.2 988.6 844.6 991.2 839 991.2 C 833.3 991.2 829.7 988.6 829.7 986.1 L 829.7 984.6 C 829.7 982.1 833.3 979.5 839 979.5 C 844.6 979.5 848.2 982.1 848.2 984.6 L 848.2 986.1 Z M 859.6 958.4 L 852.9 958.4 L 852.9 947 L 847.9 947 L 847.9 974.8 L 852.9 974.8 L 852.9 962.8 L 859.6 962.8 L 859.6 958.4 Z M 867 986.4 C 867 991.4 872.3 995.4 881.2 995.4 C 890.1 995.4 895.4 991.4 895.4 986.4 L 895.4 984.4 C 895.4 979.4 890.1 975.4 881.2 975.4 C 872.3 975.4 867 979.4 867 984.4 L 867 986.4 Z M 871.9 963.2 C 872.2 964 873.3 965.1 874.8 966.4 C 877.2 968.4 879.6 970.4 882.2 972.4 L 885.2 968.9 C 882.2 966.7 879.3 964.3 876.9 962.1 C 874.4 959.9 874.2 958.2 874.2 955 L 874.2 949.1 L 869.1 949.1 L 869.1 955.2 C 869.1 958.8 868.4 960.7 865.8 963.4 C 864 965.1 860.8 967.8 857.6 970.3 L 860.6 973.9 C 863.3 971.8 866.3 969.2 868.4 967.3 C 870 965.9 871.6 964.1 871.8 963.2 L 871.9 963.2 Z M 890.5 986.1 C 890.5 988.6 886.9 991.2 881.2 991.2 C 875.6 991.2 872 988.6 872 986.1 L 872 984.6 C 872 982.1 875.6 979.5 881.2 979.5 C 886.9 979.5 890.5 982.1 890.5 984.6 L 890.5 986.1 Z M 901.9 958.4 L 895.2 958.4 L 895.2 947 L 890.2 947 L 890.2 974.8 L 895.2 974.8 L 895.2 962.8 L 901.9 962.8 L 901.9 958.4 Z"/>
  </g>
  <g id="mask2">
    <path class="s0" d="m522.9 568c-102.4 0-185.6-83.3-185.6-185.7 0-16.2 2.1-32.3 6.3-47.9 22-81.4 95.7-137.8 179.3-137.8 102.3 0 185.6 83.3 185.6 185.7 0 102.4-83.3 185.7-185.6 185.7zm-82.8-269.6c-10.7 0-21.4 2.8-30.8 8.3-14.1 8.2-24.3 21.4-28.6 37.2-3.4 12.5-5.1 25.5-5.1 38.4 0 81.3 66 147.4 147.2 147.4 81.2 0 147.3-66.1 147.3-147.4 0-81.2-66.1-147.3-147.3-147.3-27.2 0-53.9 7.5-77 21.8l-5 3.1 5.8 0.3c6.5 0.5 13.1 1.6 19.5 3.3 31.6 8.4 57.1 31.9 68.2 62.8 4.3 11.9 6.3 24.5 5.8 37.3-0.3 10.4-8.7 18.5-19.1 18.5h-0.7c-10.5-0.4-18.8-9.3-18.5-19.9 0.3-7.9-0.9-15.6-3.5-22.9-6.9-19.1-22.6-33.6-42.1-38.8-5.3-1.4-10.7-2.1-16.1-2.1z"/>
    <path class="s0" d="m978 815.5l-16.5-0.4v-23.6c0-1.2-0.9-2.1-2.1-2.1h-14.8c-1.1 0-2.1 1-2.1 2.1v47.4l-62.9 8c-0.7 0-1.2-0.4-1.2-1l-0.4-13.8c0-0.6 0.4-1.1 1-1.1l38.9-0.7c1.8 0 3.4-1.3 3.9-3.1l10.2-36.6c0.6-2.3-0.8-4.6-3.1-5.2l-74.3-17.7c-1.3-0.3-2.6 0.7-2.6 2v14.5c0 1 0.7 1.8 1.6 2l54.3 13c0.6 0.1 0.9 0.7 0.8 1.3l-3.1 11.2c-0.1 0.4-0.5 0.7-1 0.7l-44.4 0.2c-2.4 0-4.3 2-4.1 4.4l2.3 45.8c0.2 2.4 2.3 4.2 4.8 3.9l79.3-10.2v6.3c0 1.2 1 2.1 2.1 2.1h14.8c1.2 0 2.1-0.9 2.1-2.1v-30.5l16.1 0.3c1.2 0 2.1-0.9 2.1-2l0.3-12.9c0-1.2-0.9-2.1-2-2.2z"/>
  </g>
  <g id="mask7">
    <path class="s1" d="m316.3 239.2l-55.3-31.9c-9.6-5.6-22.4-3.4-28.5 6-6.5 10-3.2 23.2 6.9 29.1l56.3 32.5c9.9 5.7 22.5 2.3 28.2-7.5 5.7-9.9 2.3-22.5-7.6-28.2z"/>
    <path class="s1" d="m773.2 402.9h53c11.2 0 21.2-8.3 21.8-19.5 0.6-11.9-8.9-21.7-20.6-21.7h-54.1c-11.4 0-20.6 9.2-20.6 20.6 0 11.4 9.2 20.6 20.6 20.6z"/>
    <path class="s1" d="m290.8 786.4h-14.7c-1.2 0-2.1 1-2.1 2.1v48.6l-51.7 6.3c-0.7 0-1.2-0.6-1.1-1.2l8.1-61.1c0.2-1.3-0.8-2.4-2.2-2.4l-16.6 1c-1 0.1-1.8 0.8-1.9 1.8l-11.4 77.9c-0.4 2.7 1.9 5.1 4.7 4.7l72.1-9.4v5.1c0 1.2 0.9 2.1 2.1 2.1h14.7c1.2 0 2.1-0.9 2.1-2.1v-30.5l16.1 0.4c1.2 0 2.2-0.9 2.2-2.1l0.2-12.9c0.1-1.2-0.8-2.1-2-2.1l-16.5-0.4v-23.7c0-1.1-0.9-2.1-2.1-2.1z"/>
  </g>
  <g id="mask3">
    <path class="s2" d="m630.2 609.6l32 55.3c5.5 9.7 17.8 14.2 27.7 9.1 10.6-5.4 14.4-18.5 8.5-28.7l-32.5-56.3c-5.7-9.9-18.3-13.2-28.2-7.6-9.8 5.7-13.2 18.3-7.5 28.2z"/>
    <path class="s2" d="m272.5 361.7h-74.8c-11.1 0-21.1 8.4-21.7 19.5-0.6 11.9 8.9 21.7 20.6 21.7h75.9c11.4 0 20.6-9.2 20.6-20.6 0-11.4-9.2-20.6-20.6-20.6z"/>
    <path class="s2" d="m665.9 175.7l27.8-48.4c5.6-9.6 3.3-22.5-6-28.5-10-6.5-23.2-3.2-29.1 6.9l-28.4 49.3c-5.7 9.9-2.3 22.5 7.5 28.2 9.9 5.7 22.5 2.3 28.2-7.5z"/>
    <path class="s2" d="m329.6 851l77.8-5.4c1.1-0.1 2-1 2-2.1l0.3-13.4c0-1.3-1-2.2-2.2-2.2l-78.2 5.6c-1.1 0-1.9 0.9-1.9 2l-0.1 13.4c0 1.3 1.1 2.2 2.3 2.1z"/>
    <path class="s2" d="m352.2 752l-16.6 1c-1 0-1.8 0.8-2 1.8l-8.9 68.3c-0.4 2.7 2 5 4.8 4.6l78.2-11.7c1-0.1 1.7-1 1.8-2l0.2-13.4c0-1.3-1.1-2.3-2.4-2.1l-57.6 8.2c-0.7 0.1-1.3-0.5-1.2-1.2l5.9-51.1c0.2-1.3-0.9-2.5-2.2-2.4z"/>
    <path class="s2" d="m356.6 854.1l-14.6 0.9c-1.2 0.1-2.1 1.2-2 2.4l3.9 26.5c0.4 2.3 2.5 3.9 4.8 3.5l56.2-8.4c1.1-0.1 1.8-1 1.8-2l0.3-13.4c0-1.3-1.1-2.3-2.4-2.1l-42.7 6.3c-0.5 0.1-1.1-0.3-1.2-0.8l-1.9-11.2c-0.2-1-1.2-1.8-2.2-1.7z"/>
  </g>
  <g id="mask4">
    <path class="s3" d="m729.4 525.4l70.8 40.8c9.7 5.6 22.5 3.4 28.5-6 6.5-10 3.2-23.2-6.9-29.1l-71.8-41.4c-9.8-5.7-22.4-2.3-28.1 7.6-5.7 9.8-2.3 22.4 7.5 28.1z"/>
    <path class="s3" d="m379.8 589l-22.2 38.4c-5.6 9.7-3.4 22.5 6 28.6 10 6.5 23.2 3.2 29.1-7l22.8-39.4c5.7-9.9 2.3-22.5-7.5-28.2-9.9-5.7-22.4-2.3-28.2 7.6z"/>
    <path class="s3" d="m485.8 777.9c-25.1 0-48 19.4-45.5 44.4 2.4 24.9 20.4 42.7 45.5 42.7 25.2 0 45.6-17.7 45.6-42.7 0-25.1-20.4-44.4-45.6-44.4zm18 58.1c-8.4 10.4-21.8 11.8-33 4.4-11.1-7.3-11.5-23.2-3.1-33.5 8.4-10.4 23.3-12.3 33.7-3.9 10.4 8.4 10.9 22.7 2.4 33z"/>
    <path class="s3" d="m557.7 787.9h-14.8c-1.1 0-2.1 0.9-2.1 2.1v71.3c0 1.2 1 2.1 2.1 2.1h14.8c1.2 0 2.1-0.9 2.1-2.1v-30.5l16.1 0.3c1.2 0 2.1-0.9 2.2-2l0.2-12.9c0-1.2-0.9-2.2-2-2.2l-16.5-0.4v-23.6c0-1.2-0.9-2.1-2.1-2.1z"/>
  </g>
  <g id="mask5">
    <path class="s4" d="m522.9 612.2c-11.4 0-20.6 9.2-20.6 20.6v65.4c0 11.2 8.3 21.2 19.5 21.8 11.8 0.6 21.7-8.9 21.7-20.6v-66.6c0-11.3-9.3-20.6-20.7-20.6z"/>
    <path class="s4" d="m415.5 155l-27.5-47.6c-5.6-9.7-17.8-14.1-27.8-9.1-10.6 5.4-14.3 18.5-8.5 28.7l28.2 48.6c5.7 9.9 18.2 13.2 28.1 7.6 9.9-5.7 13.2-18.3 7.6-28.2z"/>
    <path class="s4" d="m750 274.9l64.2-37c9.7-5.6 14.1-17.9 9.1-27.8-5.4-10.6-18.5-14.4-28.7-8.5l-65.2 37.6c-9.8 5.7-13.2 18.3-7.5 28.2 5.7 9.8 18.2 13.2 28.1 7.5z"/>
    <path class="s4" d="m706.3 785.8h-14.8c-1.1 0-2.1 0.9-2.1 2.1v63c0 1.2 1 2.1 2.1 2.1h14.8c1.1 0 2.1-0.9 2.1-2.1v-63c0-1.2-1-2.1-2.1-2.1z"/>
    <path class="s4" d="m636.1 777.9c-25.2 0-48 19.4-45.6 44.4 2.4 24.9 20.4 42.7 45.6 42.7 25.1 0 45.5-17.7 45.5-42.7 0-25.1-20.4-44.4-45.5-44.4zm18 58.1c-8.5 10.4-21.9 11.8-33 4.4-11.2-7.3-11.6-23.2-3.2-33.5 8.5-10.4 23.3-12.3 33.7-3.9 10.4 8.4 10.9 22.7 2.5 33z"/>
  </g>
  <g id="mask6">
    <path class="s5" d="m522.9 152.4c11.3 0 20.6-9.2 20.6-20.6v-82c0-11.2-8.4-21.2-19.5-21.8-11.9-0.6-21.7 8.9-21.7 20.6v83.2c0 11.4 9.2 20.6 20.6 20.6z"/>
    <path class="s5" d="m295.8 489.7l-63.8 36.8c-9.7 5.6-14.1 17.8-9.1 27.8 5.4 10.6 18.5 14.3 28.7 8.5l64.7-37.4c9.9-5.7 13.3-18.3 7.6-28.2-5.7-9.8-18.3-13.2-28.2-7.5z"/>
    <path class="s5" d="m822.1 786.4h-14.8c-1.1 0-2.1 0.9-2.1 2.1v46.5l-52.8 7.6c-0.7 0.1-1.3-0.5-1.2-1.2l9.5-60c0.2-1.4-0.9-2.6-2.2-2.5l-16.6 1c-1 0-1.8 0.8-2 1.7l-13.3 78.9c-0.5 2.8 1.9 5.3 4.7 4.8l73.9-11.1v5.6c0 1.2 1 2.1 2.1 2.1h14.8c1.2 0 2.1-0.9 2.1-2.1v-30.5l16.1 0.3c1.2 0 2.1-0.9 2.2-2l0.2-13c0-1.1-0.9-2.1-2-2.1l-16.5-0.4v-23.6c0-1.2-0.9-2.1-2.1-2.1z"/>
  </g>
</svg>