<svg version="1.2" xmlns="http://www.w3.org/2000/svg" viewBox="0 0 1024 1024" width="1024" height="1024">
  <title>artst_mask_3</title>
  <style>
		.s0 { fill: #3957b6 } 
		.s1 { fill: #d3b997 } 
		.s2 { fill: #ffc05f } 
		.s3 { fill: #f03fa7 } 
		.s4 { fill: #34cff0 } 
		.s5 { fill: #4f7bd5 } 
	</style>
  <g id="mask1">
    <path class="s0" d="m522.9 490.5c-51.6 0-96.3-36.7-106.2-87.3-0.9-5 0.1-10.2 3-14.4 2.8-4.3 7.2-7.2 12.2-8.1q1.8-0.4 3.7-0.4c9.1 0 17 6.5 18.8 15.5 6.3 32.6 35.2 56.3 68.4 56.3 33.3 0 62.1-23.7 68.5-56.3 1.8-9 9.7-15.5 18.8-15.5q1.9 0 3.7 0.3c5.1 1 9.4 3.9 12.3 8.2 2.8 4.2 3.8 9.3 2.9 14.4-9.9 50.6-54.6 87.3-106.2 87.3z"/>
    <path class="s0" d="m608.1 358c12.1 0 21.9-9.9 21.9-22 0-12.2-9.8-22-21.9-22-12.2 0-22 9.8-22 22 0 12.1 9.8 22 22 22z"/>
   </g>
  <g id="mask2">
    <path class="s0" d="m522.9 568c-102.4 0-185.6-83.3-185.6-185.7 0-16.2 2.1-32.3 6.3-47.9 22-81.4 95.7-137.8 179.3-137.8 102.3 0 185.6 83.3 185.6 185.7 0 102.4-83.3 185.7-185.6 185.7zm-82.8-269.6c-10.7 0-21.4 2.8-30.8 8.3-14.1 8.2-24.3 21.4-28.6 37.2-3.4 12.5-5.1 25.5-5.1 38.4 0 81.3 66 147.4 147.2 147.4 81.2 0 147.3-66.1 147.3-147.4 0-81.2-66.1-147.3-147.3-147.3-27.2 0-53.9 7.5-77 21.8l-5 3.1 5.8 0.3c6.5 0.5 13.1 1.6 19.5 3.3 31.6 8.4 57.1 31.9 68.2 62.8 4.3 11.9 6.3 24.5 5.8 37.3-0.3 10.4-8.7 18.5-19.1 18.5h-0.7c-10.5-0.4-18.8-9.3-18.5-19.9 0.3-7.9-0.9-15.6-3.5-22.9-6.9-19.1-22.6-33.6-42.1-38.8-5.3-1.4-10.7-2.1-16.1-2.1z"/>
  </g>
  <g id="mask7">
    <path class="s1" d="m316.3 239.2l-55.3-31.9c-9.6-5.6-22.4-3.4-28.5 6-6.5 10-3.2 23.2 6.9 29.1l56.3 32.5c9.9 5.7 22.5 2.3 28.2-7.5 5.7-9.9 2.3-22.5-7.6-28.2z"/>
    <path class="s1" d="m773.2 402.9h53c11.2 0 21.2-8.3 21.8-19.5 0.6-11.9-8.9-21.7-20.6-21.7h-54.1c-11.4 0-20.6 9.2-20.6 20.6 0 11.4 9.2 20.6 20.6 20.6z"/>
   </g>
  <g id="mask3">
    <path class="s2" d="m630.2 609.6l32 55.3c5.5 9.7 17.8 14.2 27.7 9.1 10.6-5.4 14.4-18.5 8.5-28.7l-32.5-56.3c-5.7-9.9-18.3-13.2-28.2-7.6-9.8 5.7-13.2 18.3-7.5 28.2z"/>
    <path class="s2" d="m272.5 361.7h-74.8c-11.1 0-21.1 8.4-21.7 19.5-0.6 11.9 8.9 21.7 20.6 21.7h75.9c11.4 0 20.6-9.2 20.6-20.6 0-11.4-9.2-20.6-20.6-20.6z"/>
    <path class="s2" d="m665.9 175.7l27.8-48.4c5.6-9.6 3.3-22.5-6-28.5-10-6.5-23.2-3.2-29.1 6.9l-28.4 49.3c-5.7 9.9-2.3 22.5 7.5 28.2 9.9 5.7 22.5 2.3 28.2-7.5z"/>
   </g>
  <g id="mask4">
    <path class="s3" d="m729.4 525.4l70.8 40.8c9.7 5.6 22.5 3.4 28.5-6 6.5-10 3.2-23.2-6.9-29.1l-71.8-41.4c-9.8-5.7-22.4-2.3-28.1 7.6-5.7 9.8-2.3 22.4 7.5 28.1z"/>
    <path class="s3" d="m379.8 589l-22.2 38.4c-5.6 9.7-3.4 22.5 6 28.6 10 6.5 23.2 3.2 29.1-7l22.8-39.4c5.7-9.9 2.3-22.5-7.5-28.2-9.9-5.7-22.4-2.3-28.2 7.6z"/>
     </g>
  <g id="mask5">
    <path class="s4" d="m522.9 612.2c-11.4 0-20.6 9.2-20.6 20.6v65.4c0 11.2 8.3 21.2 19.5 21.8 11.8 0.6 21.7-8.9 21.7-20.6v-66.6c0-11.3-9.3-20.6-20.7-20.6z"/>
    <path class="s4" d="m415.5 155l-27.5-47.6c-5.6-9.7-17.8-14.1-27.8-9.1-10.6 5.4-14.3 18.5-8.5 28.7l28.2 48.6c5.7 9.9 18.2 13.2 28.1 7.6 9.9-5.7 13.2-18.3 7.6-28.2z"/>
    <path class="s4" d="m750 274.9l64.2-37c9.7-5.6 14.1-17.9 9.1-27.8-5.4-10.6-18.5-14.4-28.7-8.5l-65.2 37.6c-9.8 5.7-13.2 18.3-7.5 28.2 5.7 9.8 18.2 13.2 28.1 7.5z"/>
  </g>
  <g id="mask6">
    <path class="s5" d="m522.9 152.4c11.3 0 20.6-9.2 20.6-20.6v-82c0-11.2-8.4-21.2-19.5-21.8-11.9-0.6-21.7 8.9-21.7 20.6v83.2c0 11.4 9.2 20.6 20.6 20.6z"/>
    <path class="s5" d="m295.8 489.7l-63.8 36.8c-9.7 5.6-14.1 17.8-9.1 27.8 5.4 10.6 18.5 14.3 28.7 8.5l64.7-37.4c9.9-5.7 13.3-18.3 7.6-28.2-5.7-9.8-18.3-13.2-28.2-7.5z"/>
  </g>
</svg>