<svg version="1.2" xmlns="http://www.w3.org/2000/svg" width="1024" height="1024"
  viewBox="0 0 1024 1024">
  <g id="0">
    <path
      d="M522.8,490.5h0.1c-1.28079,-0.0454 -5.14391,-0.0927 -7.68476,-0.2724c-2.54085,-0.1797 -5.06445,-0.45115 -7.56034,-0.8058c-2.49589,-0.35465 -4.97104,-0.7982 -7.41499,-1.3221c-2.44395,-0.5239 -4.86367,-1.13385 -7.24871,-1.8213c-2.38504,-0.68745 -4.74236,-1.4581 -7.06151,-2.3034c-2.31915,-0.8453 -4.6071,-1.77095 -6.85339,-2.7684c-2.24629,-0.99745 -4.45789,-2.0724 -6.62434,-3.2163c-2.16645,-1.1439 -4.29472,-2.36245 -6.37436,-3.6471c-2.07964,-1.28465 -4.11761,-2.6411 -6.10346,-4.0608c-1.98585,-1.4197 -3.92655,-2.90835 -5.81164,-4.4574c-1.88509,-1.54905 -3.72154,-3.1642 -5.49889,-4.8369c-1.77735,-1.6727 -3.50258,-3.40865 -5.16521,-5.1993c-1.66264,-1.79065 -3.26966,-3.6417 -4.81061,-5.5446c-1.54095,-1.9029 -3.0228,-3.86335 -4.43509,-5.8728c-1.41229,-2.00945 -2.76199,-4.0736 -4.03864,-6.1839c-1.27665,-2.1103 -2.48722,-4.27245 -3.62126,-6.4779c-1.13404,-2.20545 -2.19851,-4.4599 -3.18296,-6.7548c-0.98445,-2.2949 -1.89585,-4.63595 -2.72374,-7.0146c-0.82789,-2.37865 -1.57924,-4.80063 -2.24359,-7.2573c-0.66435,-2.45667 -1.45207,-6.23562 -1.74248,-7.48275c-0.02013,-0.12523 -0.08528,-0.5007 -0.12078,-0.7515c-0.0355,-0.2508 -0.06625,-0.5021 -0.09225,-0.75345c-0.026,-0.25135 -0.04725,-0.50305 -0.06375,-0.75465c-0.0165,-0.2516 -0.02825,-0.5034 -0.03525,-0.75495c-0.007,-0.25155 -0.00925,-0.50315 -0.00675,-0.75435c0.0025,-0.2512 0.00975,-0.5023 0.02175,-0.75285c0.012,-0.25055 0.02875,-0.50085 0.05025,-0.75045c0.0215,-0.2496 0.04775,-0.4988 0.07875,-0.74715c0.031,-0.24835 0.06675,-0.49615 0.10725,-0.74295c0.0405,-0.2468 0.08575,-0.4929 0.13575,-0.73785c0.05,-0.24495 0.10475,-0.48905 0.16425,-0.73185c0.0595,-0.2428 0.12375,-0.4846 0.19275,-0.72495c0.069,-0.24035 0.14275,-0.47955 0.22125,-0.71715c0.0785,-0.2376 0.16175,-0.4739 0.24975,-0.70845c0.088,-0.23455 0.18075,-0.46765 0.27825,-0.69885c0.0975,-0.2312 0.19975,-0.4608 0.30675,-0.68835c0.107,-0.22755 0.21875,-0.45335 0.33525,-0.67695c0.1165,-0.2236 0.23775,-0.4453 0.36375,-0.66465c0.126,-0.21935 0.25675,-0.43665 0.39225,-0.65145c0.1355,-0.2148 0.35062,-0.53111 0.42074,-0.63734c0.07198,-0.10574 0.28405,-0.42654 0.43188,-0.63444c0.14783,-0.2079 0.29967,-0.4123 0.45513,-0.61298c0.15546,-0.20067 0.31479,-0.39778 0.47762,-0.59108c0.16283,-0.1933 0.32942,-0.38295 0.49938,-0.56872c0.16996,-0.18577 0.34354,-0.36783 0.52037,-0.54593c0.17683,-0.1781 0.35717,-0.3524 0.54062,-0.52267c0.18346,-0.17028 0.37029,-0.33668 0.56012,-0.49898c0.18983,-0.1623 0.38292,-0.32065 0.57888,-0.47482c0.19596,-0.15417 0.39504,-0.30432 0.59688,-0.45022c0.20183,-0.1459 0.40667,-0.2877 0.61412,-0.42518c0.20746,-0.13747 0.41779,-0.27078 0.63063,-0.39968c0.21283,-0.1289 0.42842,-0.25355 0.64637,-0.37372c0.21796,-0.12018 0.43854,-0.23602 0.66138,-0.34732c0.22283,-0.1113 0.44817,-0.2182 0.67563,-0.32048c0.22746,-0.10228 0.45729,-0.20007 0.68912,-0.29317c0.23183,-0.0931 0.46592,-0.18165 0.70188,-0.26542c0.23596,-0.08378 0.47404,-0.16293 0.71387,-0.23723c0.23983,-0.0743 0.48167,-0.1439 0.72512,-0.20857c0.24346,-0.06467 0.48879,-0.12458 0.73563,-0.17948c0.24683,-0.0549 0.62113,-0.12494 0.74536,-0.14992c0.03004,-0.0065 0.1201,-0.02634 0.18026,-0.039c0.06017,-0.01267 0.12042,-0.025 0.18075,-0.037c0.06033,-0.012 0.12075,-0.02367 0.18125,-0.035c0.0605,-0.01133 0.12108,-0.02233 0.18175,-0.033c0.06067,-0.01067 0.12142,-0.021 0.18225,-0.031c0.06083,-0.01 0.12175,-0.01967 0.18275,-0.029c0.061,-0.00933 0.12208,-0.01833 0.18325,-0.027c0.06117,-0.00867 0.12242,-0.017 0.18375,-0.025c0.06133,-0.008 0.12275,-0.01567 0.18425,-0.023c0.0615,-0.00733 0.12308,-0.01433 0.18475,-0.021c0.06167,-0.00667 0.12342,-0.013 0.18525,-0.019c0.06183,-0.006 0.12375,-0.01167 0.18575,-0.017c0.062,-0.00533 0.12408,-0.01033 0.18625,-0.015c0.06217,-0.00467 0.12442,-0.009 0.18675,-0.013c0.06233,-0.004 0.12475,-0.00767 0.18725,-0.011c0.0625,-0.00333 0.12508,-0.00633 0.18775,-0.009c0.06267,-0.00267 0.12542,-0.005 0.18825,-0.007c0.06283,-0.002 0.12575,-0.00367 0.18875,-0.005c0.063,-0.00133 0.12608,-0.00233 0.18925,-0.003c0.06317,-0.00067 0.15812,-0.00083 0.18975,-0.001c0.2259,0.00804 0.90721,0.01642 1.35539,0.04825c0.44818,0.03183 0.89337,0.07992 1.33371,0.14275c0.44035,0.06283 0.87708,0.14142 1.30836,0.23425c0.43128,0.09283 0.85834,0.20092 1.27934,0.32275c0.421,0.12183 0.83715,0.25842 1.24664,0.40825c0.40948,0.14983 0.81352,0.31392 1.21026,0.49075c0.39675,0.17683 0.78743,0.36742 1.17021,0.57025c0.38278,0.20283 0.75889,0.41892 1.12649,0.64675c0.3676,0.22783 0.7279,0.46842 1.07909,0.72025c0.35118,0.25183 0.69447,0.51592 1.02801,0.79075c0.33355,0.27483 0.65858,0.56142 0.97326,0.85825c0.31468,0.29683 0.62024,0.60492 0.91484,0.92275c0.2946,0.31783 0.57945,0.64642 0.85274,0.98425c0.27328,0.33783 0.53622,0.68592 0.78696,1.04275c0.25075,0.35683 0.49053,0.72342 0.71751,1.09825c0.22698,0.37483 0.44239,0.75892 0.64439,1.15075c0.202,0.39183 0.3918,0.79242 0.56759,1.20025c0.17578,0.40783 0.33877,0.82392 0.48711,1.24675c0.14835,0.42283 0.28328,0.85342 0.40296,1.29025c0.11968,0.43683 0.26261,1.10894 0.31513,1.33072c0.18537,0.80357 0.68727,3.23839 1.11222,4.82143c0.42495,1.58303 0.9064,3.14382 1.43749,4.6768c0.53109,1.53298 1.11639,3.04187 1.74904,4.5211c0.63265,1.47923 1.31723,2.93252 2.04686,4.3543c0.72964,1.42178 1.50891,2.81577 2.33096,4.1764c0.82205,1.36063 1.69145,2.69162 2.60134,3.9874c0.90989,1.29578 1.86484,2.56007 2.85799,3.7873c0.99315,1.22723 2.02908,2.42112 3.10091,3.5761c1.07184,1.15498 2.18416,2.27477 3.33011,3.3538c1.14595,1.07903 2.3301,2.12102 3.54559,3.1204c1.21549,0.99938 2.46689,1.95987 3.74734,2.8759c1.28045,0.91603 2.59452,1.79132 3.93536,2.6203c1.34084,0.82898 2.71301,1.61537 4.10966,2.3536c1.39665,0.73823 2.82235,1.43202 4.27024,2.0758c1.44789,0.64378 2.92254,1.24127 4.41709,1.7869c1.49455,0.54563 3.01358,1.04312 4.55021,1.4869c1.53664,0.44378 3.09546,0.83757 4.66961,1.1758c1.57415,0.33823 3.1682,0.62462 4.77529,0.8536c1.60709,0.22898 3.2318,0.40427 4.86724,0.5203c1.63543,0.11603 4.12114,0.14658 4.94536,0.1759c0.8265,-0.02932 3.3196,-0.05987 4.95911,-0.1759c1.63952,-0.11603 3.26778,-0.29132 4.87809,-0.5203c1.6103,-0.22898 3.20712,-0.51537 4.78374,-0.8536c1.57662,-0.33823 3.13751,-0.73202 4.67596,-1.1758c1.53845,-0.44378 3.05895,-0.94127 4.55476,-1.4869c1.49582,-0.54563 2.97143,-1.14312 4.42014,-1.7869c1.4487,-0.64378 2.87497,-1.33757 4.27209,-2.0758c1.39712,-0.73823 2.76956,-1.52462 4.11061,-2.3536c1.34105,-0.82898 2.6552,-1.70427 3.93571,-2.6203c1.28052,-0.91603 2.53188,-1.87652 3.74739,-2.8759c1.2155,-0.99938 2.39962,-2.04137 3.54564,-3.1204c1.14602,-1.07903 2.25841,-2.19882 3.33046,-3.3538c1.07205,-1.15498 2.10825,-2.34887 3.10186,-3.5761c0.99362,-1.22723 1.94913,-2.49152 2.85984,-3.7873c0.9107,-1.29578 1.78107,-2.62677 2.60439,-3.9874c0.82332,-1.36063 1.60406,-2.75462 2.33551,-4.1764c0.73145,-1.42178 1.4181,-2.87507 2.05321,-4.3543c0.63512,-1.47923 1.22318,-2.98812 1.75749,-4.5211c0.5343,-1.53298 1.01932,-3.09378 1.44834,-4.6768c0.42901,-1.58302 0.93812,-4.01775 1.12574,-4.8213c0.05252,-0.22179 0.19547,-0.89401 0.31516,-1.33085c0.11968,-0.43683 0.25462,-0.86742 0.40296,-1.29025c0.14835,-0.42283 0.31133,-0.83892 0.48711,-1.24675c0.17578,-0.40783 0.36559,-0.80842 0.56759,-1.20025c0.202,-0.39183 0.4174,-0.77592 0.64439,-1.15075c0.22698,-0.37483 0.46677,-0.74142 0.71751,-1.09825c0.25075,-0.35683 0.51368,-0.70492 0.78696,-1.04275c0.27328,-0.33783 0.55814,-0.66642 0.85274,-0.98425c0.2946,-0.31783 0.60015,-0.62592 0.91484,-0.92275c0.31468,-0.29683 0.63972,-0.58342 0.97326,-0.85825c0.33355,-0.27483 0.67683,-0.53892 1.02801,-0.79075c0.35118,-0.25183 0.71149,-0.49242 1.07909,-0.72025c0.3676,-0.22783 0.7437,-0.44392 1.12649,-0.64675c0.38278,-0.20283 0.77347,-0.39342 1.17021,-0.57025c0.39675,-0.17683 0.80078,-0.34092 1.21026,-0.49075c0.40948,-0.14983 0.82564,-0.28642 1.24664,-0.40825c0.421,-0.12183 0.84805,-0.22992 1.27934,-0.32275c0.43128,-0.09283 0.86802,-0.17142 1.30836,-0.23425c0.44035,-0.06283 0.88553,-0.11092 1.33371,-0.14275c0.44818,-0.03183 1.12947,-0.04021 1.35536,-0.04825c0.03162,0.00013 0.12661,0.00025 0.18978,0.00075c0.06317,0.0005 0.12625,0.00125 0.18925,0.00225c0.063,0.001 0.12592,0.00225 0.18875,0.00375c0.06283,0.0015 0.12558,0.00325 0.18825,0.00525c0.06267,0.002 0.12525,0.00425 0.18775,0.00675c0.0625,0.0025 0.12492,0.00525 0.18725,0.00825c0.06233,0.003 0.12458,0.00625 0.18675,0.00975c0.06217,0.0035 0.12425,0.00725 0.18625,0.01125c0.062,0.004 0.12392,0.00825 0.18575,0.01275c0.06183,0.0045 0.12358,0.00925 0.18525,0.01425c0.06167,0.005 0.12325,0.01025 0.18475,0.01575c0.0615,0.0055 0.12292,0.01125 0.18425,0.01725c0.06133,0.006 0.12258,0.01225 0.18375,0.01875c0.06117,0.0065 0.12225,0.01325 0.18325,0.02025c0.061,0.007 0.12192,0.01425 0.18275,0.02175c0.06083,0.0075 0.12158,0.01525 0.18225,0.02325c0.06067,0.008 0.12125,0.01625 0.18175,0.02475c0.0605,0.0085 0.12092,0.01725 0.18125,0.02625c0.06033,0.009 0.12058,0.01825 0.18075,0.02775c0.06017,0.0095 0.15021,0.02437 0.18025,0.02925c0.12649,0.02736 0.50803,0.10477 0.75893,0.16419c0.2509,0.05942 0.4998,0.12358 0.74648,0.19231c0.24667,0.06873 0.49127,0.14215 0.73357,0.22006c0.2423,0.07792 0.48245,0.16046 0.72023,0.24744c0.23778,0.08698 0.47332,0.17852 0.70642,0.27444c0.2331,0.09592 0.4639,0.19633 0.69218,0.30106c0.22827,0.10473 0.45417,0.2139 0.67747,0.32731c0.2233,0.11342 0.44415,0.23121 0.66233,0.35319c0.21817,0.12198 0.43383,0.24827 0.64673,0.37869c0.2129,0.13042 0.4232,0.26508 0.63067,0.40381c0.20747,0.13873 0.41227,0.28165 0.61417,0.42856c0.2019,0.14692 0.40105,0.29796 0.59723,0.45294c0.19618,0.15498 0.38952,0.31402 0.57982,0.47694c0.1903,0.16292 0.3777,0.32983 0.56198,0.50056c0.18427,0.17073 0.36557,0.3454 0.54367,0.52381c0.1781,0.17842 0.35315,0.36071 0.52493,0.54669c0.17178,0.18598 0.34042,0.37577 0.50572,0.56919c0.1653,0.19342 0.3274,0.39058 0.48608,0.59131c0.15868,0.20073 0.31408,0.40515 0.46597,0.61306c0.1519,0.20791 0.37118,0.52869 0.44542,0.63442c0.06775,0.10611 0.27551,0.4223 0.4065,0.63665c0.13098,0.21435 0.25747,0.43095 0.37941,0.64946c0.12195,0.21851 0.23938,0.43916 0.35226,0.66161c0.11288,0.22245 0.22124,0.44693 0.32504,0.67309c0.1038,0.22616 0.20305,0.45424 0.29774,0.68389c0.09468,0.22965 0.18482,0.4611 0.27036,0.69401c0.08555,0.23291 0.16653,0.46751 0.24291,0.70346c0.07638,0.23595 0.14819,0.47348 0.21539,0.71224c0.0672,0.23876 0.1298,0.47899 0.18779,0.72034c0.05798,0.24135 0.11137,0.48405 0.16011,0.72776c0.04875,0.24371 0.09288,0.48866 0.13236,0.73451c0.03948,0.24585 0.07434,0.49282 0.10454,0.74059c0.0302,0.24776 0.05575,0.49654 0.07664,0.74599c0.02088,0.24945 0.03712,0.4998 0.04866,0.75071c0.01155,0.25091 0.01843,0.50261 0.02061,0.75476c0.00218,0.25215 -0.00031,0.50498 -0.00751,0.75814c-0.0072,0.25316 -0.0191,0.50689 -0.03571,0.76084c-0.01662,0.25395 -0.03793,0.50835 -0.06399,0.76286c-0.02605,0.25451 -0.05682,0.50937 -0.09234,0.76421c-0.03552,0.25485 -0.10063,0.63739 -0.12076,0.76487c-0.29042,1.24715 -1.07817,5.02622 -1.74252,7.48292c-0.66435,2.4567 -1.4157,4.87865 -2.24359,7.2573c-0.82789,2.37865 -1.73929,4.7197 -2.72374,7.0146c-0.98445,2.2949 -2.04892,4.54935 -3.18296,6.7548c-1.13404,2.20545 -2.34461,4.3676 -3.62126,6.4779c-1.27665,2.1103 -2.62635,4.17445 -4.03864,6.1839c-1.41229,2.00945 -2.89414,3.9699 -4.43509,5.8728c-1.54095,1.9029 -3.14797,3.75395 -4.81061,5.5446c-1.66264,1.79065 -3.38786,3.5266 -5.16521,5.1993c-1.77735,1.6727 -3.6138,3.28785 -5.49889,4.8369c-1.88509,1.54905 -3.82579,3.0377 -5.81164,4.4574c-1.98585,1.4197 -4.02383,2.77615 -6.10346,4.0608c-2.07964,1.28465 -4.20791,2.5032 -6.37436,3.6471c-2.16645,1.1439 -4.37805,2.21885 -6.62434,3.2163c-2.24629,0.99745 -4.53424,1.9231 -6.85339,2.7684c-2.31915,0.8453 -4.67647,1.61595 -7.06151,2.3034c-2.38504,0.68745 -4.80476,1.2974 -7.24871,1.8213c-2.44395,0.5239 -4.9191,0.96745 -7.41499,1.3221c-2.49589,0.35465 -5.01951,0.6261 -7.56034,0.8058c-2.54082,0.1797 -6.30399,0.227 -7.58476,0.2724"
      stroke="#3957b6" fill="none"></path>
    <path
      d="M608.1,358c0.29947,-0.01221 1.20456,-0.02507 1.79681,-0.07329c0.59225,-0.04822 1.17875,-0.12118 1.75669,-0.21601c0.57794,-0.09483 1.14919,-0.21345 1.71094,-0.35296c0.56175,-0.13952 1.11587,-0.30186 1.65956,-0.48414c0.54369,-0.18228 1.07881,-0.38642 1.60256,-0.60954c0.52375,-0.22312 1.038,-0.46713 1.53994,-0.72916c0.50194,-0.26203 0.99344,-0.544 1.47169,-0.84301c0.47825,-0.29902 0.94513,-0.61701 1.39781,-0.95109c0.45269,-0.33408 0.89306,-0.68617 1.31831,-1.05339c0.42525,-0.36722 0.83725,-0.75148 1.23319,-1.14991c0.39594,-0.39843 0.77769,-0.81295 1.14244,-1.24066c0.36475,-0.42772 0.71438,-0.87056 1.04606,-1.32564c0.33169,-0.45508 0.64731,-0.92432 0.94406,-1.40484c0.29675,-0.48052 0.5765,-0.97423 0.83644,-1.47826c0.25994,-0.50403 0.50194,-1.0203 0.72319,-1.54591c0.22125,-0.52562 0.42363,-1.06251 0.60431,-1.60779c0.18069,-0.54528 0.34156,-1.10087 0.47981,-1.66389c0.13825,-0.56302 0.25575,-1.13538 0.34969,-1.71421c0.09394,-0.57883 0.16619,-1.16605 0.21394,-1.75876c0.04775,-0.59271 0.06047,-1.49792 0.07256,-1.7975c-0.01209,-0.30185 -0.02481,-1.21434 -0.07256,-1.81111c-0.04775,-0.59677 -0.12,-1.18753 -0.21394,-1.76952c-0.09394,-0.58199 -0.21144,-1.15706 -0.34969,-1.72242c-0.13825,-0.56537 -0.29913,-1.12288 -0.47981,-1.66978c-0.18069,-0.54689 -0.38306,-1.08501 -0.60431,-1.61158c-0.22125,-0.52657 -0.46325,-1.04343 -0.72319,-1.54782c-0.25994,-0.50439 -0.53969,-0.99816 -0.83644,-1.47853c-0.29675,-0.48037 -0.61237,-0.94918 -0.94406,-1.40367c-0.33169,-0.45449 -0.68131,-0.89651 -1.04606,-1.32327c-0.36475,-0.42677 -0.7465,-0.84013 -1.14244,-1.23733c-0.39594,-0.39719 -0.80794,-0.78006 -1.23319,-1.14582c-0.42525,-0.36577 -0.86563,-0.71628 -1.31831,-1.04878c-0.45269,-0.33249 -0.91956,-0.64881 -1.39781,-0.94617c-0.47825,-0.29737 -0.96975,-0.57763 -1.47169,-0.83803c-0.50194,-0.26039 -1.01619,-0.50276 -1.53994,-0.72432c-0.52375,-0.22157 -1.05888,-0.42418 -1.60256,-0.60508c-0.54369,-0.18089 -1.09781,-0.34191 -1.65956,-0.48027c-0.56175,-0.13837 -1.133,-0.25593 -1.71094,-0.34992c-0.57794,-0.09399 -1.16444,-0.16626 -1.75669,-0.21402c-0.59224,-0.04777 -1.49731,-0.06048 -1.79678,-0.07257c-0.30185,0.0121 -1.21434,0.02481 -1.81111,0.07257c-0.59677,0.04777 -1.18753,0.12003 -1.76952,0.21403c-0.58199,0.09399 -1.15706,0.21156 -1.72243,0.34992c-0.56537,0.13837 -1.12288,0.29938 -1.66977,0.48028c-0.54689,0.18089 -1.08501,0.38351 -1.61158,0.60507c-0.52657,0.22157 -1.04343,0.46393 -1.54782,0.72432c-0.50439,0.26039 -0.99816,0.54066 -1.47853,0.83803c-0.48037,0.29737 -0.94918,0.61368 -1.40367,0.94617c-0.45449,0.33249 -0.89651,0.68301 -1.32327,1.04878c-0.42677,0.36577 -0.84013,0.74863 -1.23733,1.14582c-0.39719,0.39719 -0.78006,0.81056 -1.14583,1.23733c-0.36577,0.42677 -0.71628,0.86878 -1.04877,1.32327c-0.33249,0.45449 -0.64881,0.92331 -0.94617,1.40368c-0.29737,0.48037 -0.57763,0.97413 -0.83803,1.47852c-0.26039,0.50439 -0.50276,1.02126 -0.72432,1.54783c-0.22157,0.52657 -0.42418,1.06468 -0.60508,1.61158c-0.18089,0.54689 -0.34191,1.10441 -0.48028,1.66977c-0.13837,0.56537 -0.25593,1.14043 -0.34992,1.72243c-0.09399,0.58199 -0.16626,1.17276 -0.21402,1.76953c-0.04777,0.59676 -0.06048,1.5092 -0.07257,1.81104c0.0121,0.29959 0.02481,1.20486 0.07257,1.79757c0.04777,0.59272 0.12003,1.17993 0.21403,1.75876c0.09399,0.57883 0.21156,1.1512 0.34992,1.71421c0.13837,0.56302 0.29938,1.11861 0.48028,1.66389c0.18089,0.54528 0.38351,1.08217 0.60507,1.60779c0.22157,0.52562 0.46393,1.04188 0.72432,1.54591c0.26039,0.50403 0.54066,0.99775 0.83802,1.47826c0.29737,0.48052 0.61368,0.94976 0.94618,1.40484c0.33249,0.45508 0.68301,0.89792 1.04877,1.32564c0.36577,0.42772 0.74863,0.84223 1.14582,1.24066c0.39719,0.39843 0.81056,0.7827 1.23732,1.14991c0.42677,0.36722 0.86878,0.71931 1.32328,1.05339c0.45449,0.33408 0.92331,0.65207 1.40367,0.95109c0.48037,0.29902 0.97413,0.58098 1.47852,0.84301c0.50439,0.26203 1.02126,0.50605 1.54783,0.72916c0.52657,0.22312 1.06468,0.42726 1.61158,0.60954c0.54689,0.18228 1.10441,0.34462 1.66978,0.48414c0.56537,0.13952 1.14043,0.25813 1.72243,0.35296c0.58199,0.09483 1.17276,0.1678 1.76952,0.21601c0.59676,0.04822 1.50924,0.06107 1.81108,0.07329z"
      stroke="#3957b6" fill="none"></path>
    <path
      d="M522.9,568c-2.53467,-0.10279 -10.19467,-0.21093 -15.208,-0.61673c-5.01333,-0.4058 -9.97867,-1.01985 -14.872,-1.81807c-4.89333,-0.79823 -9.73067,-1.79668 -14.488,-2.97127c-4.75733,-1.1746 -9.45067,-2.5414 -14.056,-4.07632c-4.60533,-1.53492 -9.13867,-3.25402 -13.576,-5.13323c-4.43733,-1.8792 -8.79467,-3.93455 -13.048,-6.14198c-4.25333,-2.20743 -8.41867,-4.58298 -12.472,-7.10258c-4.05333,-2.5196 -8.01067,-5.1993 -11.848,-8.01502c-3.83733,-2.81572 -7.57067,-5.78352 -11.176,-8.87932c-3.60533,-3.0958 -7.09867,-6.33565 -10.456,-9.69548c-3.35733,-3.35983 -6.59467,-6.85568 -9.688,-10.46348c-3.09333,-3.6078 -6.05867,-7.3436 -8.872,-11.18332c-2.81333,-3.83972 -5.49067,-7.79942 -8.008,-11.85502c-2.51733,-4.0556 -4.89067,-8.22315 -7.096,-12.47857c-2.20533,-4.25543 -4.25867,-8.61478 -6.136,-13.05398c-1.87733,-4.4392 -3.59467,-8.9743 -5.128,-13.58122c-1.53333,-4.60692 -2.89867,-9.30173 -4.072,-14.06033c-1.17333,-4.7586 -2.17067,-9.59705 -2.968,-14.49127c-0.79733,-4.89423 -1.41067,-9.86033 -1.816,-14.87408c-0.40533,-5.01375 -0.51333,-12.67368 -0.616,-15.20842c0.00263,-0.40487 0.00525,-1.62007 0.01575,-2.42951c0.0105,-0.80943 0.02625,-1.61862 0.04725,-2.4274c0.021,-0.80878 0.04725,-1.61727 0.07875,-2.4253c0.0315,-0.80803 0.06825,-1.61572 0.11025,-2.4229c0.042,-0.80718 0.08925,-1.61397 0.14175,-2.4202c0.0525,-0.80623 0.11025,-1.61202 0.17325,-2.4172c0.063,-0.80518 0.13125,-1.60987 0.20475,-2.4139c0.0735,-0.80403 0.15225,-1.60752 0.23625,-2.4103c0.084,-0.80278 0.17325,-1.60497 0.26775,-2.4064c0.0945,-0.80143 0.19425,-1.60222 0.29925,-2.4022c0.105,-0.79998 0.21525,-1.59927 0.33075,-2.3977c0.1155,-0.79843 0.23625,-1.59612 0.36225,-2.3929c0.126,-0.79678 0.25725,-1.59277 0.39375,-2.3878c0.1365,-0.79503 0.27825,-1.58922 0.42525,-2.3824c0.147,-0.79318 0.29925,-1.58547 0.45675,-2.3767c0.1575,-0.79123 0.32025,-1.58152 0.48825,-2.3707c0.168,-0.78918 0.34125,-1.57737 0.51975,-2.3644c0.1785,-0.78703 0.36225,-1.57302 0.55125,-2.3578c0.189,-0.78478 0.38325,-1.56847 0.58275,-2.3509c0.1995,-0.78243 0.51186,-1.95304 0.61424,-2.34365c0.61341,-2.00211 2.32977,-8.07482 3.6805,-12.01268c1.35073,-3.93785 2.83058,-7.81327 4.4239,-11.6145c1.59332,-3.80122 3.31054,-7.53609 5.13602,-11.19284c1.82547,-3.65675 3.76964,-7.24323 5.81683,-10.74768c2.0472,-3.50445 4.20786,-6.9347 6.46634,-10.279c2.25848,-3.3443 4.62521,-6.61048 7.08455,-9.7868c2.45933,-3.17631 5.0217,-6.2706 7.67145,-9.27109c2.64975,-3.00049 5.39732,-5.91503 8.22705,-8.73186c2.82973,-2.81683 5.75207,-5.54379 8.75135,-8.16913c2.99928,-2.62533 6.08595,-5.15688 9.24435,-7.58287c3.1584,-2.426 6.39896,-4.75428 9.70604,-6.9731c3.30708,-2.21882 6.69111,-4.33601 10.13643,-6.33982c3.44532,-2.00381 6.96238,-3.90207 10.53552,-5.68302c3.57314,-1.78096 7.21279,-3.45245 10.9033,-5.00271c3.69051,-1.55027 7.44233,-2.98715 11.23979,-4.29888c3.79746,-1.31174 7.651,-2.50617 11.54496,-3.57154c3.89397,-1.06537 7.8388,-2.00952 11.81884,-2.82069c3.98004,-0.81117 8.00573,-1.49719 12.06141,-2.04632c4.05568,-0.54913 8.15184,-0.96919 12.27269,-1.24843c4.12085,-0.27925 10.377,-0.35586 12.4524,-0.42704c0.00105,0 0.00445,0 0.00655,0c0.0021,0 0.0042,0 0.0063,0c0.0021,0 0.0042,0 0.0063,0c0.0021,0 0.0042,0 0.0063,0c0.0021,0 0.0042,0 0.0063,0c0.0021,0 0.0042,0 0.0063,0c0.0021,0 0.0042,0 0.0063,0c0.0021,0 0.0042,0 0.0063,0c0.0021,0 0.0042,0 0.0063,0c0.0021,0 0.0042,0 0.0063,0c0.0021,0 0.0042,0 0.0063,0c0.0021,0 0.0042,0 0.0063,0c0.0021,0 0.0042,0 0.0063,0c0.0021,0 0.0042,0 0.0063,0c0.0021,0 0.0042,0 0.0063,0c0.0021,0 0.0042,0 0.0063,0c0.0021,0 0.0042,0 0.0063,0c0.0021,0 0.0042,0 0.0063,0c0.0021,0 0.00424,0 0.0063,0c0.00206,0 0.00504,0 0.00605,0c0.59756,0.00569 2.39319,0.01145 3.58559,0.03415c1.19241,0.0227 2.38221,0.05682 3.5691,0.10205c1.18689,0.04523 2.37107,0.10178 3.55223,0.16933c1.18116,0.06755 2.35951,0.14632 3.53475,0.23599c1.17523,0.08967 2.34755,0.19045 3.51664,0.30203c1.16909,0.11158 2.33517,0.23417 3.49792,0.36745c1.16275,0.13328 2.32238,0.27747 3.47858,0.43226c1.1562,0.15478 2.30917,0.32037 3.45861,0.49644c1.14944,0.17608 2.29555,0.36285 3.43803,0.56001c1.14248,0.19716 2.28152,0.40492 3.41683,0.62296c1.13531,0.21804 2.26708,0.44658 3.39501,0.68529c1.12793,0.23872 2.25223,0.48782 3.37257,0.747c1.12035,0.25918 2.23696,0.52865 3.34952,0.8081c1.11256,0.27945 2.22127,0.56907 3.32584,0.86858c1.10456,0.2995 2.20518,0.60908 3.30154,0.92844c1.09636,0.31935 2.18867,0.64868 3.27663,0.98768c1.08795,0.339 2.17175,0.68786 3.25109,1.0463c1.07934,0.35843 2.15442,0.72664 3.22494,1.1043c1.07052,0.37766 2.13672,0.76501 3.19816,1.16169c1.06144,0.39667 2.64209,1.01529 3.1705,1.21835c1.69518,0.72896 6.83455,2.81947 10.17138,4.3739c3.33682,1.55442 6.62371,3.20894 9.84983,4.95274c3.22612,1.7438 6.39869,3.58409 9.50689,5.51007c3.1082,1.92597 6.15924,3.94483 9.14229,6.04576c2.98305,2.10093 5.90534,4.29115 8.75603,6.55983c2.85069,2.26868 5.637,4.62305 8.34811,7.05228c2.71111,2.42923 5.35423,4.94053 7.91853,7.52309c2.5643,2.58256 5.05701,5.24359 7.46728,7.97228c2.41028,2.72869 4.74535,5.53224 6.99438,8.39984c2.24903,2.8676 4.41925,5.80646 6.49981,8.80577c2.08057,2.99931 4.07871,6.06627 5.98359,9.19008c1.90488,3.12381 3.72373,6.31166 5.4457,9.55276c1.72198,3.24109 3.3543,6.54264 4.88615,9.89381c1.53185,3.35117 2.97044,6.75919 4.30494,10.21323c1.3345,3.45404 2.57214,6.96133 3.70207,10.51103c1.12994,3.54971 2.15939,7.14904 3.07754,10.7872c0.91815,3.63816 1.73221,7.32234 2.43135,11.04174c0.69914,3.7194 1.29058,7.48122 1.7635,11.27466c0.47291,3.79343 0.83452,7.62574 1.07398,11.48595c0.23947,3.86021 0.30234,9.72942 0.36281,11.6753c-0.10279,2.53479 -0.21093,10.19523 -0.61671,15.20903c-0.40578,5.0138 -1.01982,9.97985 -1.81799,14.87408c-0.79817,4.89423 -1.79655,9.73267 -2.97104,14.49127c-1.17448,4.7586 -2.54114,9.4534 -4.07586,14.06033c-1.53472,4.60692 -3.25358,9.14202 -5.13246,13.58122c-1.87888,4.4392 -3.93387,8.79855 -6.14084,13.05398c-2.20697,4.25543 -4.582,8.42297 -7.10099,12.47857c-2.51898,4.0556 -5.19799,8.0153 -8.01291,11.85503c-2.81492,3.83973 -5.78183,7.57553 -8.87661,11.18333c-3.09478,3.6078 -6.33352,7.10365 -9.69209,10.46347c-3.35857,3.35983 -6.85305,6.59968 -10.45934,9.69548c-3.60628,3.0958 -7.34044,6.0636 -11.17836,8.87932c-3.83792,2.81572 -7.79568,5.49542 -11.84916,8.01502c-4.05348,2.5196 -8.21877,4.89515 -12.47174,7.10258c-4.25297,2.20743 -8.6097,4.26278 -13.04609,6.14198c-4.43638,1.8792 -8.96849,3.5983 -13.57221,5.13322c-4.60372,1.53493 -9.29513,2.90173 -14.05011,4.07632c-4.75498,1.1746 -9.58962,2.17305 -14.47979,2.97127c-4.89017,0.79823 -9.85201,1.41228 -14.86124,1.81808c-5.00923,0.4058 -12.6621,0.51394 -15.19446,0.61672z"
      stroke="#3957b6" fill="none"></path>
    <path
      d="M440.1,298.4c-0.26747,0.0035 -1.07005,0.007 -1.60484,0.02099c-0.53478,0.01398 -1.06957,0.03497 -1.60386,0.06291c-0.5343,0.02795 -1.06843,0.06288 -1.60191,0.10476c-0.53348,0.04188 -1.06664,0.09074 -1.59899,0.14654c-0.53235,0.0558 -1.0642,0.11855 -1.59509,0.18824c-0.53088,0.06968 -1.06112,0.14632 -1.59021,0.22986c-0.5291,0.08355 -1.05738,0.17403 -1.58436,0.27141c-0.52698,0.09738 -1.05299,0.20169 -1.57754,0.31289c-0.52455,0.1112 -1.04795,0.2293 -1.56974,0.35429c-0.52178,0.12498 -1.04227,0.25687 -1.56096,0.39561c-0.5187,0.13875 -1.03593,0.28438 -1.55121,0.43686c-0.51528,0.15248 -1.02894,0.31184 -1.54049,0.47804c-0.51155,0.1662 -1.0213,0.33925 -1.52879,0.51914c-0.50748,0.17988 -1.01302,0.36662 -1.51611,0.56016c-0.5031,0.19355 -1.00408,0.39393 -1.50246,0.60111c-0.49838,0.20718 -0.99449,0.42119 -1.48784,0.64199c-0.49335,0.2208 -0.98425,0.4484 -1.47224,0.68279c-0.48798,0.23438 -0.97337,0.47557 -1.45566,0.72351c-0.4823,0.24795 -0.96183,0.50268 -1.43811,0.76416c-0.47628,0.26148 -1.18297,0.6706 -1.41956,0.80472c-0.34758,0.2112 -1.40036,0.83262 -2.08553,1.26722c-0.68517,0.4346 -1.36058,0.8817 -2.0255,1.3404c-0.66492,0.4587 -1.31983,0.9296 -1.964,1.4118c-0.64417,0.4822 -1.27808,0.9763 -1.901,1.4814c-0.62292,0.5051 -1.23533,1.0218 -1.8365,1.5492c-0.60117,0.5274 -1.19158,1.0661 -1.7705,1.6152c-0.57892,0.5491 -1.14683,1.1092 -1.703,1.6794c-0.55617,0.5702 -1.10108,1.1511 -1.634,1.7418c-0.53292,0.5907 -1.05433,1.1918 -1.5635,1.8024c-0.50917,0.6106 -1.00658,1.2313 -1.4915,1.8612c-0.48492,0.6299 -0.95783,1.2696 -1.418,1.9182c-0.46017,0.6486 -0.90808,1.3067 -1.343,1.9734c-0.43492,0.6667 -0.85733,1.3426 -1.2665,2.0268c-0.40917,0.6842 -0.80558,1.3773 -1.1885,2.0784c-0.38292,0.7011 -0.75283,1.4108 -1.109,2.1282c-0.35617,0.7174 -0.69908,1.4431 -1.028,2.1762c-0.32892,0.7331 -0.64433,1.4742 -0.9455,2.2224c-0.30117,0.7482 -0.58858,1.5041 -0.8615,2.2668c-0.27292,0.7627 -0.53184,1.53281 -0.776,2.3094c-0.24416,0.77659 -0.57416,1.95846 -0.68899,2.35015c-0.08288,0.31311 -0.33576,1.25132 -0.49726,1.87872c-0.1615,0.6274 -0.31875,1.25605 -0.47175,1.88572c-0.153,0.62968 -0.30175,1.26053 -0.44625,1.89233c-0.1445,0.6318 -0.28475,1.2647 -0.42075,1.89848c-0.136,0.63377 -0.26775,1.26857 -0.39525,1.90417c-0.1275,0.6356 -0.25075,1.27215 -0.36975,1.90942c-0.119,0.63727 -0.23375,1.27542 -0.34425,1.91422c-0.1105,0.6388 -0.21675,1.2784 -0.31875,1.91858c-0.102,0.64017 -0.19975,1.28108 -0.29325,1.92248c-0.0935,0.6414 -0.18275,1.28345 -0.26775,1.92592c-0.085,0.64247 -0.16575,1.28553 -0.24225,1.92892c-0.0765,0.6434 -0.14875,1.2873 -0.21675,1.93147c-0.068,0.64418 -0.13175,1.28877 -0.19125,1.93358c-0.0595,0.6448 -0.11475,1.28995 -0.16575,1.93523c-0.051,0.64528 -0.09775,1.29083 -0.14025,1.93643c-0.0425,0.6456 -0.08075,1.2914 -0.11475,1.93717c-0.034,0.64578 -0.06375,1.29167 -0.08925,1.93748c-0.0255,0.6458 -0.04675,1.29165 -0.06375,1.93732c-0.017,0.64567 -0.02975,1.29133 -0.03825,1.93673c-0.0085,0.64539 -0.01062,1.61303 -0.01275,1.93564c0.08144,2.01244 0.16712,8.09416 0.48865,12.07468c0.32153,3.98052 0.80807,7.92303 1.44055,11.80846c0.63248,3.88543 1.42362,7.7265 2.35435,11.50411c0.93073,3.77762 2.01377,7.50451 3.23005,11.16159c1.21628,3.65708 2.57852,7.25707 4.06765,10.78089c1.48913,3.52382 3.11787,6.98418 4.86715,10.36201c1.74928,3.37783 3.63182,6.68585 5.62855,9.90496c1.99673,3.21912 4.12037,6.36206 6.35185,9.40974c2.23148,3.04768 4.58352,6.01282 7.03705,8.87634c2.45353,2.86352 5.02127,5.63813 7.68415,8.30476c2.66288,2.66663 5.43362,5.238 8.29315,7.69501c2.85953,2.45702 5.82057,4.81241 8.86405,7.04709c3.04348,2.23468 6.18212,4.36137 9.39685,6.36099c3.21473,1.99962 6.51827,3.88488 9.89155,5.63671c3.37328,1.75183 6.82902,3.38295 10.34815,4.87426c3.51913,1.49132 7.11437,2.85556 10.76665,4.07364c3.65228,1.21808 7.37432,2.30272 11.14705,3.23484c3.77273,0.93212 7.60887,1.72443 11.48935,2.35786c3.88048,0.63343 7.81806,1.1207 11.79355,1.44271c3.97549,0.32202 10.04951,0.40782 12.05941,0.48939c2.01006,-0.08156 8.08462,-0.16737 12.06062,-0.48939c3.976,-0.32202 7.91425,-0.80928 11.79563,-1.44271c3.88138,-0.63343 7.71862,-1.42575 11.49262,-2.35786c3.774,-0.93212 7.4975,-2.01676 11.15138,-3.23484c3.65387,-1.21808 7.25088,-2.58232 10.77188,-4.07364c3.521,-1.49132 6.97875,-3.12243 10.35412,-4.87426c3.37537,-1.75183 6.68113,-3.6371 9.89813,-5.63671c3.217,-1.99962 6.358,-4.12631 9.40387,-6.36099c3.04588,-2.23468 6.00938,-4.59007 8.87138,-7.04709c2.862,-2.45702 5.63525,-5.02838 8.30062,-7.69501c2.66538,-2.66663 5.23563,-5.44125 7.69163,-8.30476c2.456,-2.86352 4.8105,-5.82866 7.04437,-8.87634c2.23388,-3.04768 4.35987,-6.19062 6.35887,-9.40974c1.999,-3.21912 3.88375,-6.52713 5.63513,-9.90496c1.75138,-3.37783 3.38212,-6.8382 4.87312,-10.36201c1.491,-3.52382 2.855,-7.12381 4.07287,-10.78089c1.21788,-3.65708 2.30238,-7.38397 3.23438,-11.16159c0.932,-3.77762 1.72425,-7.61868 2.35762,-11.50411c0.63338,-3.88543 1.12063,-7.82799 1.44262,-11.80846c0.322,-3.98048 0.40781,-10.06199 0.48937,-12.07439c-0.08156,-2.01006 -0.16737,-8.08462 -0.48937,-12.06062c-0.322,-3.976 -0.80925,-7.91425 -1.44263,-11.79562c-0.63338,-3.88137 -1.42562,-7.71863 -2.35762,-11.49263c-0.932,-3.774 -2.0165,-7.4975 -3.23437,-11.15137c-1.21788,-3.65388 -2.58188,-7.25088 -4.07288,-10.77188c-1.491,-3.521 -3.12175,-6.97875 -4.87312,-10.35413c-1.75138,-3.37538 -3.63612,-6.68113 -5.63513,-9.89813c-1.999,-3.217 -4.125,-6.358 -6.35888,-9.40387c-2.23388,-3.04587 -4.58837,-6.00937 -7.04437,-8.87137c-2.456,-2.862 -5.02625,-5.63525 -7.69163,-8.30063c-2.66538,-2.66537 -5.43863,-5.23562 -8.30062,-7.69162c-2.862,-2.456 -5.8255,-4.8105 -8.87138,-7.04438c-3.04588,-2.23388 -6.18687,-4.35988 -9.40387,-6.35888c-3.217,-1.999 -6.52275,-3.88375 -9.89813,-5.63512c-3.37537,-1.75137 -6.83312,-3.38213 -10.35412,-4.87313c-3.521,-1.491 -7.118,-2.855 -10.77187,-4.07288c-3.65387,-1.21787 -7.37738,-2.30237 -11.15138,-3.23437c-3.774,-0.932 -7.61125,-1.72425 -11.49262,-2.35763c-3.88138,-0.63338 -7.81967,-1.12063 -11.79563,-1.44262c-3.97596,-0.322 -10.05011,-0.40781 -12.06013,-0.48937c-0.67931,0.00936 -2.71912,0.01878 -4.07611,0.05616c-1.35698,0.03738 -2.71272,0.09352 -4.06604,0.16814c-1.35332,0.07462 -2.705,0.1679 -4.05389,0.27959c-1.34888,0.11168 -2.69574,0.24194 -4.03941,0.39051c-1.34367,0.14857 -2.68493,0.31563 -4.02261,0.50091c-1.33768,0.18528 -2.67257,0.38897 -4.00349,0.61079c-1.33092,0.22182 -2.65865,0.46195 -3.98204,0.72014c-1.32338,0.25818 -2.64319,0.53459 -3.95826,0.82896c-1.31507,0.29437 -2.62618,0.60688 -3.93216,0.93726c-1.30598,0.33038 -2.60762,0.67882 -3.90374,1.04504c-1.29612,0.36622 -2.5875,0.7504 -3.87299,1.15229c-1.28548,0.40188 -2.56584,0.82164 -3.83991,1.25901c-1.27407,0.43737 -2.54263,0.89253 -3.80451,1.36521c-1.26188,0.47268 -2.51787,0.96307 -3.76679,1.47089c-1.24892,0.50782 -2.49155,1.03325 -3.72674,1.57604c-1.23518,0.54278 -2.46369,1.10309 -3.68436,1.68066c-1.22067,0.57757 -2.43428,1.17258 -3.63966,1.78476c-1.20538,0.61218 -2.40332,1.24172 -3.59264,1.88834c-1.18932,0.64662 -2.37082,1.31051 -3.54329,1.99139c-1.17247,0.68088 -2.90962,1.74489 -3.49154,2.09387l-5.00007,3.10004l5.8,0.3c0.16262,0.01325 0.65026,0.0515 0.97571,0.0795c0.32545,0.028 0.65115,0.0575 0.97699,0.0885c0.32584,0.031 0.65189,0.0635 0.97804,0.0975c0.32615,0.034 0.65248,0.0695 0.97886,0.1065c0.32639,0.037 0.65291,0.0755 0.97946,0.1155c0.32655,0.04 0.6532,0.0815 0.97984,0.1245c0.32664,0.043 0.65334,0.0875 0.97999,0.1335c0.32665,0.046 0.65333,0.0935 0.97991,0.1425c0.32659,0.049 0.65316,0.0995 0.97961,0.1515c0.32645,0.052 0.65285,0.1055 0.97909,0.1605c0.32624,0.055 0.65239,0.1115 0.97834,0.1695c0.32595,0.058 0.65178,0.1175 0.97736,0.1785c0.32559,0.061 0.65101,0.1235 0.97616,0.1875c0.32515,0.064 0.6501,0.1295 0.97474,0.1965c0.32464,0.067 0.64904,0.1355 0.97309,0.2055c0.32405,0.07 0.64783,0.1415 0.97121,0.2145c0.32339,0.073 0.64646,0.1475 0.96911,0.2235c0.32265,0.076 0.64495,0.1535 0.96679,0.2325c0.32184,0.079 0.64329,0.1595 0.96424,0.2415c0.32095,0.082 0.8012,0.20875 0.96144,0.25049c0.7822,0.22871 3.14512,0.87808 4.69323,1.37229c1.54812,0.49422 3.08098,1.02618 4.59549,1.59301c1.5145,0.56683 3.01272,1.17045 4.49154,1.80796c1.47882,0.63752 2.94031,1.31086 4.38136,2.01714c1.44105,0.70628 2.86375,1.44742 4.26496,2.22054c1.40122,0.77312 2.78303,1.58013 4.14234,2.41816c1.3593,0.83803 2.69817,1.709 4.01349,2.61001c1.31532,0.90102 2.60916,1.83401 3.87841,2.79609c1.26925,0.96208 2.516,1.95517 3.73711,2.97639c1.22112,1.02122 2.41868,2.07248 3.58959,3.15091c1.1709,1.07843 2.31722,2.18595 3.43584,3.31966c1.11862,1.13372 2.21161,2.29556 3.27586,3.48264c1.06425,1.18708 2.10185,2.40132 3.10966,3.63984c1.00782,1.23852 1.98793,2.50323 2.93724,3.79126c0.9493,1.28803 1.86987,2.6013 2.75859,3.93691c0.88872,1.33562 1.74766,2.69551 2.57371,4.07679c0.82605,1.38128 1.6213,2.78587 2.38261,4.21089c0.76132,1.42502 1.49078,2.87238 2.18529,4.33921c0.6945,1.46683 1.35613,2.95506 1.98174,4.46176c0.62561,1.5067 1.47661,3.81537 1.77193,4.57844c0.10462,0.29836 0.42429,1.19186 0.62776,1.79028c0.20347,0.59842 0.40118,1.19858 0.59308,1.80031c0.19189,0.60173 0.37801,1.20515 0.55827,1.81006c0.18027,0.60492 0.35473,1.21146 0.52332,1.81944c0.16859,0.60798 0.33136,1.21752 0.48822,1.82844c0.15687,0.61092 0.30788,1.22333 0.45298,1.83706c0.14509,0.61373 0.28431,1.2289 0.41757,1.84531c0.13327,0.61642 0.26063,1.23421 0.38202,1.85319c0.12139,0.61898 0.23686,1.23927 0.34633,1.86069c0.10947,0.62142 0.21298,1.24408 0.31047,1.86781c0.09749,0.62373 0.18901,1.24865 0.27447,1.87456c0.08547,0.62592 0.16493,1.25296 0.23833,1.88094c0.07339,0.62798 0.14076,1.25702 0.20203,1.88694c0.06127,0.62992 0.11648,1.26083 0.16557,1.89256c0.04909,0.63173 0.09211,1.2644 0.12897,1.89781c0.03687,0.63342 0.06763,1.26771 0.09223,1.90269c0.02459,0.63498 0.04306,1.27077 0.05532,1.90719c0.01227,0.63642 0.01838,1.27358 0.01827,1.91131c-0.00011,0.63773 -0.00639,1.27615 -0.01892,1.91506c-0.01253,0.63891 -0.04689,1.59867 -0.05627,1.9184c-0.0175,0.257 -0.05051,1.03453 -0.10499,1.54206c-0.05448,0.50753 -0.12922,1.00932 -0.22191,1.50317c-0.0927,0.49386 -0.20488,0.98124 -0.33426,1.45998c-0.12938,0.47873 -0.27749,0.95027 -0.44204,1.41243c-0.16455,0.46216 -0.34705,0.91639 -0.54524,1.36052c-0.19818,0.44413 -0.41357,0.87962 -0.64386,1.30428c-0.2303,0.42466 -0.47703,0.83994 -0.73791,1.24367c-0.26088,0.40373 -0.53744,0.79737 -0.82739,1.17873c-0.28995,0.38136 -0.5948,0.75189 -0.91229,1.10943c-0.31748,0.35753 -0.64912,0.70352 -0.99261,1.03577c-0.3435,0.33226 -0.70038,0.65224 -1.06836,0.95778c-0.36798,0.30553 -0.74859,0.59807 -1.13954,0.87542c-0.39095,0.27736 -0.79375,0.54099 -1.20614,0.78872c-0.41238,0.24773 -0.83587,0.48102 -1.26816,0.69767c-0.4323,0.21666 -0.87493,0.41814 -1.32561,0.60228c-0.45068,0.18413 -0.91094,0.35237 -1.37849,0.50252c-0.46755,0.15016 -0.9439,0.28369 -1.42679,0.39843c-0.48288,0.11473 -0.97382,0.21212 -1.47051,0.28998c-0.4967,0.07786 -1.00068,0.13764 -1.50966,0.17718c-0.50898,0.03953 -1.28684,0.05002 -1.54421,0.06002l-0.70003,0c-0.25962,-0.02048 -1.04477,-0.06153 -1.5577,-0.1229c-0.51293,-0.06137 -1.02037,-0.14398 -1.5199,-0.2453c-0.49953,-0.10132 -0.99277,-0.22303 -1.4773,-0.3626c-0.48453,-0.13957 -0.96197,-0.29868 -1.4299,-0.4748c-0.46793,-0.17612 -0.92797,-0.37093 -1.3777,-0.5819c-0.44973,-0.21097 -0.89077,-0.43978 -1.3207,-0.6839c-0.42993,-0.24412 -0.85037,-0.50523 -1.2589,-0.7808c-0.40853,-0.27557 -0.80677,-0.56728 -1.1923,-0.8726c-0.38553,-0.30532 -0.75997,-0.62593 -1.1209,-0.9593c-0.36093,-0.33337 -0.70997,-0.68118 -1.0447,-1.0409c-0.33473,-0.35972 -0.65677,-0.73303 -0.9637,-1.1174c-0.30693,-0.38437 -0.60037,-0.78148 -0.8779,-1.1888c-0.27753,-0.40732 -0.54077,-0.82653 -0.7873,-1.2551c-0.24653,-0.42857 -0.47797,-0.86818 -0.6919,-1.3163c-0.21393,-0.44812 -0.41197,-0.90643 -0.5917,-1.3724c-0.17973,-0.46597 -0.34277,-0.94128 -0.4867,-1.4234c-0.14393,-0.48212 -0.27037,-0.97273 -0.3769,-1.4693c-0.10653,-0.49657 -0.19477,-1.00078 -0.2623,-1.5101c-0.06753,-0.50932 -0.11597,-1.02544 -0.1429,-1.5458c-0.02693,-0.52036 -0.01558,-1.31364 -0.0187,-1.57637c0.00563,-0.19725 0.02625,-0.78954 0.03376,-1.18351c0.00752,-0.39397 0.01128,-0.78743 0.01134,-1.18032c0.00005,-0.39289 -0.00363,-0.78526 -0.01101,-1.17703c-0.00738,-0.39177 -0.01849,-0.78298 -0.03329,-1.17357c-0.0148,-0.39059 -0.0333,-0.78061 -0.05549,-1.16998c-0.02218,-0.38937 -0.04807,-0.77813 -0.07761,-1.16623c-0.02955,-0.38809 -0.06278,-0.77556 -0.09966,-1.16233c-0.03688,-0.38677 -0.07744,-0.77288 -0.12164,-1.15828c-0.0442,-0.38539 -0.09205,-0.77011 -0.14354,-1.15407c-0.05148,-0.38397 -0.10662,-0.76723 -0.16536,-1.14973c-0.05875,-0.38249 -0.12113,-0.76426 -0.18711,-1.14522c-0.06598,-0.38097 -0.13559,-0.76118 -0.20879,-1.14058c-0.0732,-0.37939 -0.15,-0.75801 -0.23039,-1.13578c-0.08038,-0.37777 -0.16437,-0.75473 -0.25191,-1.13082c-0.08755,-0.37609 -0.17868,-0.75136 -0.27336,-1.12572c-0.09468,-0.37437 -0.19294,-0.74788 -0.29474,-1.12048c-0.1018,-0.37259 -0.20715,-0.74431 -0.31604,-1.11507c-0.10888,-0.37077 -0.22132,-0.74063 -0.33726,-1.10952c-0.11595,-0.36889 -0.23543,-0.73686 -0.35841,-1.10383c-0.12298,-0.36696 -0.31623,-0.91496 -0.37948,-1.09795c-0.1834,-0.47165 -0.71222,-1.89872 -1.10038,-2.82993c-0.38817,-0.93122 -0.79833,-1.85093 -1.22862,-2.75739c-0.43029,-0.90645 -0.88196,-1.80082 -1.35312,-2.68134c-0.47117,-0.88052 -0.96308,-1.74836 -1.47387,-2.60176c-0.51079,-0.8534 -1.04171,-1.69355 -1.59087,-2.51866c-0.54917,-0.82512 -1.11783,-1.63638 -1.70413,-2.43204c-0.58629,-0.79565 -1.19146,-1.57687 -1.81363,-2.34189c-0.62217,-0.76502 -1.26258,-1.51501 -1.91937,-2.24821c-0.65679,-0.7332 -1.33121,-1.4508 -2.02137,-2.15101c-0.69017,-0.70022 -1.39733,-1.38423 -2.11963,-2.05029c-0.72229,-0.66605 -1.46096,-1.31532 -2.21412,-1.94604c-0.75317,-0.63072 -1.52208,-1.24406 -2.30488,-1.83826c-0.78279,-0.5942 -1.58071,-1.17045 -2.39187,-1.72696c-0.81117,-0.55652 -1.63683,-1.09448 -2.47513,-1.61214c-0.83829,-0.51765 -1.69046,-1.01617 -2.55462,-1.49379c-0.86417,-0.47762 -1.74158,-0.93551 -2.63038,-1.37191c-0.88879,-0.4364 -1.79021,-0.8525 -2.70238,-1.24651c-0.91217,-0.39402 -1.83633,-0.76713 -2.77062,-1.11759c-0.93429,-0.35045 -1.87997,-0.67942 -2.83513,-0.98514c-0.95516,-0.30571 -2.41318,-0.70762 -2.89582,-0.84915c-0.13262,-0.03413 -0.53031,-0.13827 -0.7958,-0.20477c-0.26548,-0.0665 -0.53122,-0.13125 -0.79716,-0.19425c-0.26595,-0.063 -0.53213,-0.12425 -0.79851,-0.18375c-0.26638,-0.0595 -0.53299,-0.11725 -0.79979,-0.17325c-0.2668,-0.056 -0.5338,-0.11025 -0.80099,-0.16275c-0.26718,-0.0525 -0.53457,-0.10325 -0.80211,-0.15225c-0.26755,-0.049 -0.53528,-0.09625 -0.80316,-0.14175c-0.26788,-0.0455 -0.53594,-0.08925 -0.80414,-0.13125c-0.2682,-0.042 -0.53655,-0.08225 -0.80504,-0.12075c-0.26848,-0.0385 -0.53712,-0.07525 -0.80586,-0.11025c-0.26875,-0.035 -0.53763,-0.06825 -0.80661,-0.09975c-0.26898,-0.0315 -0.53809,-0.06125 -0.80729,-0.08925c-0.2692,-0.028 -0.5385,-0.05425 -0.80789,-0.07875c-0.26938,-0.0245 -0.53887,-0.04725 -0.80841,-0.06825c-0.26955,-0.021 -0.53918,-0.04025 -0.80886,-0.05775c-0.26968,-0.0175 -0.53944,-0.03325 -0.80924,-0.04725c-0.2698,-0.014 -0.53965,-0.02625 -0.80954,-0.03675c-0.26988,-0.0105 -0.53982,-0.01925 -0.80976,-0.02625c-0.26995,-0.007 -0.53993,-0.01225 -0.80991,-0.01575c-0.26998,-0.0035 -0.67499,-0.00438 -0.80999,-0.00525z"
      stroke="#3957b6" fill="none"></path>
    <path
      d="M316.3,239.2l-55.3,-31.9c-0.24379,-0.13026 -0.96841,-0.54048 -1.46276,-0.78158c-0.49435,-0.2411 -0.9967,-0.4627 -1.50334,-0.66502c-0.50664,-0.20233 -1.02004,-0.38523 -1.53649,-0.54892c-0.51645,-0.1637 -1.03842,-0.30805 -1.56221,-0.43327c-0.52379,-0.12523 -1.05186,-0.23118 -1.58051,-0.31808c-0.52865,-0.0869 -1.06035,-0.1546 -1.59139,-0.20333c-0.53104,-0.04872 -1.06389,-0.07833 -1.59484,-0.08902c-0.53095,-0.0107 -1.06248,-0.00235 -1.59086,0.02483c-0.52839,0.02717 -1.05611,0.07333 -1.57946,0.13823c-0.52335,0.0649 -1.0448,0.1487 -1.56064,0.25117c-0.51584,0.10247 -1.02854,0.22377 -1.53439,0.36368c-0.50585,0.1399 -1.00733,0.29855 -1.50071,0.47572c-0.49339,0.17718 -0.98116,0.37303 -1.45961,0.58732c-0.47845,0.2143 -0.95005,0.4472 -1.41109,0.69847c-0.46104,0.25127 -0.91399,0.52108 -1.35514,0.80918c-0.44115,0.2881 -0.87297,0.59465 -1.29176,0.91942c-0.41879,0.32477 -0.82701,0.66792 -1.22096,1.02922c-0.39395,0.3613 -0.7761,0.7409 -1.14274,1.13858c-0.36664,0.39767 -0.72024,0.81358 -1.05709,1.24747c-0.33685,0.4339 -0.80333,1.12991 -0.96399,1.3559c-0.15031,0.25378 -0.62539,1.00847 -0.90189,1.52272c-0.2765,0.51425 -0.5285,1.0365 -0.75713,1.56281c-0.22862,0.52631 -0.43313,1.05931 -0.61463,1.59506c-0.1815,0.53575 -0.33925,1.07688 -0.47437,1.61944c-0.13512,0.54256 -0.24687,1.08919 -0.33638,1.63594c-0.0895,0.54675 -0.156,1.09625 -0.20063,1.64456c-0.04463,0.54831 -0.06663,1.09806 -0.06713,1.64531c-0.0005,0.54725 0.02125,1.09463 0.06413,1.63819c0.04288,0.54356 0.10763,1.08594 0.19313,1.62319c0.0855,0.53725 0.1925,1.072 0.31987,1.60031c0.12738,0.52831 0.27588,1.05281 0.44438,1.56956c0.1685,0.51675 0.35775,1.02838 0.56663,1.53094c0.20888,0.50256 0.43812,0.99869 0.68662,1.48444c0.2485,0.48575 0.517,0.96375 0.80437,1.43006c0.28737,0.46631 0.59438,0.92356 0.91988,1.36781c0.3255,0.44425 0.67025,0.87813 1.03312,1.29769c0.36288,0.41956 0.74463,0.82744 1.14413,1.21969c0.3995,0.39225 0.8175,0.7715 1.25287,1.13381c0.43537,0.36231 0.88888,0.71032 1.35938,1.04006c0.47049,0.32975 1.21966,0.78202 1.46359,0.93842l56.30003,32.50002c0.25068,0.13118 0.99715,0.54714 1.50405,0.78709c0.5069,0.23995 1.02055,0.45715 1.53735,0.65261c0.5168,0.19546 1.03915,0.36851 1.56345,0.52016c0.5243,0.15165 1.05295,0.28123 1.58235,0.38974c0.5294,0.10851 1.06195,0.19529 1.59405,0.26134c0.5321,0.06605 1.06615,0.1107 1.59855,0.13496c0.5324,0.02426 1.06555,0.02746 1.59585,0.01061c0.5303,-0.01685 1.06015,-0.05442 1.58595,-0.11171c0.5258,-0.05729 1.04995,-0.13496 1.56885,-0.23201c0.5189,-0.09705 1.03495,-0.21415 1.54455,-0.35029c0.5096,-0.13614 1.01515,-0.29199 1.51305,-0.46654c0.4979,-0.17455 0.99055,-0.36848 1.47435,-0.58076c0.4838,-0.21229 0.96115,-0.44361 1.42845,-0.69296c0.4673,-0.24935 0.92695,-0.5174 1.37535,-0.80314c0.4484,-0.28574 0.88795,-0.58984 1.31505,-0.91129c0.4271,-0.32145 0.84415,-0.66092 1.24755,-1.01741c0.4034,-0.35649 0.79555,-0.73066 1.17285,-1.12151c0.3773,-0.39085 0.74215,-0.79905 1.09095,-1.22359c0.3488,-0.42454 0.68395,-0.86609 1.00185,-1.32364c0.3179,-0.45755 0.75461,-1.18469 0.90553,-1.42163c0.13118,-0.25068 0.54716,-0.99718 0.78709,-1.50408c0.23993,-0.5069 0.45712,-1.02055 0.65253,-1.53735c0.19541,-0.5168 0.36839,-1.03915 0.51992,-1.56345c0.15153,-0.5243 0.28097,-1.05295 0.38928,-1.58235c0.10831,-0.5294 0.19484,-1.06195 0.26057,-1.59405c0.06573,-0.5321 0.11002,-1.06615 0.13383,-1.59855c0.02381,-0.5324 0.02649,-1.06555 0.00902,-1.59585c-0.01747,-0.5303 -0.05573,-1.06015 -0.11382,-1.58595c-0.05809,-0.5258 -0.13666,-1.04995 -0.23472,-1.56885c-0.09807,-0.5189 -0.21628,-1.03495 -0.35368,-1.54455c-0.13739,-0.5096 -0.29461,-1.01515 -0.47067,-1.51305c-0.17607,-0.4979 -0.37163,-0.99055 -0.58572,-1.47435c-0.21409,-0.4838 -0.44736,-0.96115 -0.69883,-1.42845c-0.25147,-0.4673 -0.52178,-0.92695 -0.80997,-1.37535c-0.28819,-0.4484 -0.59491,-0.88795 -0.91917,-1.31505c-0.32427,-0.4271 -0.66673,-0.84415 -1.02643,-1.24755c-0.35969,-0.4034 -0.73726,-0.79555 -1.13173,-1.17285c-0.39447,-0.3773 -0.80648,-0.74215 -1.23507,-1.09095c-0.42859,-0.3488 -0.87441,-0.68395 -1.33648,-1.00185c-0.46206,-0.3179 -1.19661,-0.75463 -1.43592,-0.90555z"
      stroke="#d3b997" fill="none"></path>
    <path
      d="M773.3,402.9l-0.1,0h53c0.27833,-0.01026 1.11734,-0.02098 1.66997,-0.06158c0.55263,-0.0406 1.10227,-0.10195 1.64583,-0.18202c0.54356,-0.08008 1.08309,-0.18023 1.61552,-0.29843c0.53243,-0.1182 1.05982,-0.2558 1.57908,-0.41077c0.51926,-0.15497 1.03244,-0.32868 1.53647,-0.51908c0.50403,-0.1904 1.00097,-0.39885 1.48772,-0.62332c0.48676,-0.22447 0.96539,-0.46633 1.43282,-0.72353c0.46743,-0.2572 0.92572,-0.5311 1.37178,-0.81967c0.44606,-0.28857 0.88194,-0.59317 1.30458,-0.91177c0.42263,-0.3186 0.83407,-0.65255 1.23122,-0.99983c0.39716,-0.34728 0.78209,-0.70922 1.15172,-1.08382c0.36963,-0.3746 0.72602,-0.7632 1.06608,-1.16377c0.34006,-0.40058 0.66584,-0.81448 0.97428,-1.23968c0.30843,-0.4252 0.60157,-0.86305 0.87632,-1.31153c0.27476,-0.44847 0.53319,-0.90892 0.77222,-1.37932c0.23903,-0.4704 0.46072,-0.9521 0.66198,-1.44308c0.20126,-0.49097 0.38414,-0.99257 0.54557,-1.50277c0.16143,-0.5102 0.30347,-1.03035 0.42303,-1.55842c0.11956,-0.52808 0.21869,-1.06543 0.29432,-1.61003c0.07563,-0.54459 0.13289,-1.38128 0.15947,-1.65754c0.00254,-0.29471 0.03442,-1.1851 0.01524,-1.76832c-0.01918,-0.58322 -0.06362,-1.16118 -0.13034,-1.73101c-0.06672,-0.56983 -0.1577,-1.13345 -0.26999,-1.68796c-0.11228,-0.55452 -0.24784,-1.10186 -0.40371,-1.63914c-0.15587,-0.53728 -0.33403,-1.06642 -0.53151,-1.58454c-0.19748,-0.51812 -0.41627,-1.02713 -0.65339,-1.52416c-0.23712,-0.49703 -0.49455,-0.984 -0.76934,-1.45801c-0.27478,-0.47402 -0.56889,-0.93701 -0.87936,-1.38609c-0.31047,-0.44908 -0.63928,-0.88617 -0.98346,-1.30839c-0.34418,-0.42222 -0.70572,-0.83148 -1.08164,-1.22491c-0.37592,-0.39343 -0.7682,-0.77295 -1.17389,-1.13566c-0.40568,-0.36272 -0.82674,-0.71056 -1.26021,-1.04064c-0.43347,-0.33008 -0.88133,-0.64432 -1.34061,-0.93984c-0.45928,-0.29552 -0.93197,-0.57423 -1.41509,-0.83326c-0.48312,-0.25903 -0.97865,-0.5003 -1.48364,-0.72091c-0.50498,-0.22062 -1.02139,-0.42251 -1.54626,-0.60279c-0.52487,-0.18028 -1.06018,-0.34087 -1.60296,-0.47889c-0.54278,-0.13802 -1.09502,-0.25538 -1.65374,-0.34921c-0.55872,-0.09383 -1.12591,-0.16605 -1.69859,-0.21376c-0.57268,-0.04772 -1.4479,-0.06045 -1.73748,-0.07254l-54.10004,0c-0.2821,0.01135 -1.13479,0.02329 -1.69263,0.06812c-0.55783,0.04483 -1.11017,0.11267 -1.65437,0.20088c-0.54421,0.08821 -1.08204,0.19854 -1.61087,0.32837c-0.52883,0.12983 -1.05042,0.28092 -1.56212,0.45063c-0.51171,0.16971 -1.01529,0.35979 -1.50812,0.56762c-0.49283,0.20783 -0.97667,0.43517 -1.44888,0.67937c-0.47221,0.24421 -0.93454,0.50704 -1.38438,0.78587c-0.44983,0.27883 -0.88892,0.57542 -1.31462,0.88713c-0.42571,0.31171 -0.83979,0.64029 -1.23962,0.98313c-0.39983,0.34283 -0.78717,0.70167 -1.15938,1.07387c-0.37221,0.37221 -0.73104,0.75954 -1.07387,1.15938c-0.34283,0.39983 -0.67142,0.81392 -0.98313,1.23962c-0.31171,0.42571 -0.60829,0.86479 -0.88712,1.31462c-0.27883,0.44983 -0.54167,0.91217 -0.78588,1.38437c-0.24421,0.47221 -0.47154,0.95604 -0.67937,1.44887c-0.20783,0.49283 -0.39792,0.99642 -0.56763,1.50813c-0.16971,0.51171 -0.32079,1.03329 -0.45062,1.56212c-0.12983,0.52883 -0.24017,1.06667 -0.32838,1.61088c-0.08821,0.54421 -0.15604,1.09655 -0.20088,1.65437c-0.04483,0.55783 -0.05677,1.41049 -0.06812,1.69259c0.01135,0.2821 0.02329,1.13483 0.06812,1.69266c0.04483,0.55783 0.11267,1.11017 0.20087,1.65438c0.08821,0.54421 0.19854,1.08204 0.32837,1.61087c0.12983,0.52883 0.28092,1.05042 0.45063,1.56213c0.16971,0.51171 0.35979,1.01529 0.56763,1.50812c0.20783,0.49283 0.43517,0.97667 0.67937,1.44888c0.24421,0.47221 0.50704,0.93454 0.78587,1.38437c0.27883,0.44983 0.57542,0.88892 0.88713,1.31463c0.31171,0.42571 0.64029,0.83979 0.98313,1.23963c0.34283,0.39983 0.70167,0.78717 1.07387,1.15937c0.37221,0.37221 0.75954,0.73104 1.15937,1.07387c0.39983,0.34283 0.81392,0.67142 1.23963,0.98313c0.42571,0.31171 0.86479,0.60829 1.31463,0.88712c0.44983,0.27883 0.91217,0.54167 1.38437,0.78588c0.47221,0.24421 0.95604,0.47154 1.44888,0.67937c0.49283,0.20783 0.99642,0.39792 1.50812,0.56763c0.51171,0.16971 1.03329,0.32079 1.56213,0.45062c0.52883,0.12983 1.06667,0.24017 1.61087,0.32838c0.54421,0.08821 1.09655,0.15604 1.65438,0.20087c0.55783,0.04483 1.41053,0.05677 1.69263,0.06813z"
      stroke="#d3b997" fill="none"></path>
    <path
      d="M630.2,609.6l32,55.3c0.14581,0.23591 0.56738,0.95718 0.87485,1.41545c0.30747,0.45827 0.63193,0.90353 0.96995,1.33415c0.33802,0.43062 0.69188,0.84768 1.05815,1.24955c0.36627,0.40187 0.74723,0.78963 1.13945,1.16165c0.39222,0.37202 0.79798,0.72938 1.21385,1.07045c0.41587,0.34107 0.84413,0.66693 1.28135,0.97595c0.43722,0.30902 0.88568,0.60228 1.34195,0.87815c0.45627,0.27587 0.92263,0.53543 1.39565,0.77705c0.47302,0.24162 0.95498,0.46638 1.44245,0.67265c0.48747,0.20627 0.98273,0.39513 1.48235,0.56495c0.49962,0.16982 1.00588,0.32168 1.51535,0.45395c0.50947,0.13227 1.02443,0.24603 1.54145,0.33965c0.51702,0.09362 1.03838,0.16818 1.56065,0.22205c0.52227,0.05387 1.04773,0.08813 1.57295,0.10115c0.52522,0.01302 1.05248,0.00588 1.57835,-0.02305c0.52587,-0.02893 1.05263,-0.07857 1.57685,-0.15055c0.52422,-0.07198 1.04818,-0.16522 1.56845,-0.28135c0.52027,-0.11613 1.03913,-0.25407 1.55315,-0.41545c0.51402,-0.16138 1.02549,-0.34512 1.53095,-0.55285c0.50546,-0.20773 1.25152,-0.57795 1.50182,-0.69353c0.25644,-0.1444 1.04315,-0.55971 1.53867,-0.86644c0.49552,-0.30673 0.97403,-0.63272 1.43446,-0.97397c0.46043,-0.34126 0.9035,-0.70044 1.32811,-1.07358c0.42462,-0.37313 0.83151,-0.76287 1.21959,-1.16522c0.38808,-0.40236 0.75807,-0.81999 1.10889,-1.24893c0.35082,-0.42893 0.68318,-0.87182 0.99601,-1.32467c0.31283,-0.45286 0.60685,-0.91834 0.88096,-1.39248c0.27412,-0.47413 0.52906,-0.95957 0.76374,-1.45233c0.23468,-0.49276 0.44982,-0.99549 0.64434,-1.50422c0.19452,-0.50873 0.36913,-1.02612 0.52276,-1.54818c0.15363,-0.52206 0.287,-1.05144 0.39901,-1.58417c0.11202,-0.53273 0.20341,-1.07147 0.27309,-1.61222c0.06968,-0.54076 0.11837,-1.08619 0.14499,-1.63233c0.02662,-0.54613 0.03188,-1.09562 0.01471,-1.64447c-0.01717,-0.54886 -0.05605,-1.09974 -0.11774,-1.64868c-0.06168,-0.54893 -0.14544,-1.09857 -0.25236,-1.64493c-0.10692,-0.54636 -0.23628,-1.09209 -0.38916,-1.63322c-0.15288,-0.54113 -0.32857,-1.08032 -0.52814,-1.61357c-0.19957,-0.53326 -0.42231,-1.06325 -0.66929,-1.58598c-0.24698,-0.52273 -0.67716,-1.292 -0.81259,-1.55039l-32.50002,-56.30003c-0.15093,-0.2392 -0.58765,-0.9736 -0.90555,-1.43521c-0.3179,-0.46162 -0.65305,-0.90673 -1.00185,-1.33449c-0.3488,-0.42775 -0.71365,-0.83872 -1.09095,-1.23204c-0.3773,-0.39332 -0.76945,-0.76956 -1.17285,-1.12786c-0.4034,-0.3583 -0.82045,-0.69925 -1.24755,-1.02196c-0.4271,-0.32272 -0.86665,-0.62778 -1.31505,-0.91434c-0.4484,-0.28655 -0.90805,-0.55517 -1.37535,-0.80499c-0.4673,-0.24982 -0.94465,-0.48141 -1.42845,-0.69391c-0.4838,-0.2125 -0.97645,-0.4065 -1.47435,-0.58111c-0.4979,-0.17462 -1.00345,-0.33043 -1.51305,-0.46659c-0.5096,-0.13615 -1.02565,-0.25322 -1.54455,-0.35034c-0.5189,-0.09712 -1.04305,-0.17486 -1.56885,-0.23236c-0.5258,-0.0575 -1.05565,-0.09535 -1.58595,-0.11266c-0.5303,-0.01732 -1.06345,-0.01468 -1.59585,0.00876c-0.5324,0.02345 -1.06645,0.06713 -1.59855,0.13191c-0.5321,0.06478 -1.06465,0.15009 -1.59405,0.25679c-0.5294,0.1067 -1.05805,0.2342 -1.58235,0.38339c-0.5243,0.14918 -1.04665,0.31947 -1.56345,0.51171c-0.5168,0.19225 -1.03045,0.40588 -1.53735,0.64176c-0.5069,0.23588 -1.25335,0.6446 -1.50402,0.77352c-0.23694,0.15093 -0.96414,0.58767 -1.42169,0.90557c-0.45755,0.3179 -0.8991,0.65305 -1.32364,1.00185c-0.42454,0.3488 -0.83274,0.71365 -1.22359,1.09095c-0.39085,0.3773 -0.76502,0.76945 -1.12151,1.17285c-0.35649,0.4034 -0.69596,0.82045 -1.01741,1.24755c-0.32145,0.4271 -0.62555,0.86665 -0.91129,1.31505c-0.28574,0.4484 -0.55379,0.90805 -0.80314,1.37535c-0.24935,0.4673 -0.48067,0.94465 -0.69296,1.42845c-0.21229,0.4838 -0.40621,0.97645 -0.58076,1.47435c-0.17455,0.4979 -0.3304,1.00345 -0.46654,1.51305c-0.13614,0.5096 -0.25324,1.02565 -0.35029,1.54455c-0.09705,0.5189 -0.17472,1.04305 -0.23201,1.56885c-0.05729,0.5258 -0.09486,1.05565 -0.11171,1.58595c-0.01685,0.5303 -0.01365,1.06345 0.01061,1.59585c0.02426,0.5324 0.06891,1.06645 0.13496,1.59855c0.06605,0.5321 0.15282,1.06465 0.26134,1.59405c0.10851,0.5294 0.23809,1.05805 0.38974,1.58235c0.15165,0.5243 0.3247,1.04665 0.52016,1.56345c0.19546,0.5168 0.41267,1.03045 0.65261,1.53735c0.23995,0.5069 0.65591,1.25338 0.78709,1.50405z"
      stroke="#ffc05f" fill="none"></path>
    <path
      d="M272.5,361.7h-74.8c-0.27595,0.01038 -1.1076,0.02124 -1.65571,0.06229c-0.54812,0.04105 -1.09348,0.1031 -1.63299,0.18401c-0.5395,0.08091 -1.07522,0.18211 -1.60404,0.30146c-0.52882,0.11935 -1.05281,0.25828 -1.56886,0.41464c-0.51605,0.15636 -1.02625,0.33159 -1.52746,0.52354c-0.50122,0.19195 -0.99553,0.40205 -1.47984,0.62816c-0.4843,0.22611 -0.96067,0.46966 -1.42599,0.72851c-0.46532,0.25885 -0.92166,0.53442 -1.36591,0.82459c-0.44425,0.29016 -0.8785,0.59634 -1.29961,0.91639c-0.42112,0.32005 -0.83118,0.6554 -1.22709,1.00391c-0.3959,0.34851 -0.77972,0.71161 -1.14834,1.08716c-0.36862,0.37555 -0.72411,0.76497 -1.06336,1.16614c-0.33925,0.40116 -0.66435,0.81549 -0.97216,1.24084c-0.30782,0.42535 -0.60043,0.86315 -0.87474,1.31126c-0.2743,0.44811 -0.53237,0.90796 -0.77109,1.37741c-0.23872,0.46945 -0.46016,0.94992 -0.66121,1.43929c-0.20105,0.48936 -0.3838,0.98904 -0.54511,1.49689c-0.16132,0.50785 -0.30328,1.0253 -0.42279,1.55021c-0.1195,0.52491 -0.21862,1.05872 -0.29424,1.59926c-0.07562,0.54054 -0.13288,1.37 -0.15946,1.644c-0.00254,0.29471 -0.03442,1.1851 -0.01524,1.76832c0.01918,0.58322 0.06362,1.16118 0.13034,1.73101c0.06672,0.56983 0.1577,1.13345 0.26999,1.68796c0.11228,0.55452 0.24784,1.10186 0.40371,1.63914c0.15587,0.53728 0.33403,1.06642 0.53151,1.58454c0.19748,0.51812 0.41627,1.02713 0.65339,1.52416c0.23712,0.49703 0.49455,0.984 0.76934,1.45801c0.27478,0.47402 0.56889,0.93701 0.87936,1.38609c0.31047,0.44908 0.63928,0.88617 0.98346,1.30839c0.34418,0.42222 0.70572,0.83148 1.08164,1.22491c0.37592,0.39343 0.7682,0.77295 1.17389,1.13566c0.40568,0.36272 0.82674,0.71056 1.26021,1.04064c0.43347,0.33008 0.88133,0.64432 1.34061,0.93984c0.45928,0.29552 0.93197,0.57423 1.41509,0.83326c0.48312,0.25903 0.97865,0.5003 1.48364,0.72091c0.50498,0.22062 1.02139,0.42251 1.54626,0.60279c0.52487,0.18028 1.06018,0.34087 1.60296,0.47889c0.54278,0.13802 1.09502,0.25538 1.65374,0.34921c0.55872,0.09383 1.12591,0.16605 1.69859,0.21376c0.57268,0.04772 1.4479,0.06045 1.73748,0.07254l75.90004,0c0.2821,-0.01135 1.13479,-0.02329 1.69262,-0.06813c0.55783,-0.04483 1.11017,-0.11267 1.65438,-0.20087c0.54421,-0.08821 1.08204,-0.19854 1.61088,-0.32837c0.52883,-0.12983 1.05042,-0.28092 1.56212,-0.45063c0.51171,-0.16971 1.01529,-0.35979 1.50813,-0.56763c0.49283,-0.20783 0.97667,-0.43517 1.44887,-0.67937c0.47221,-0.24421 0.93454,-0.50704 1.38437,-0.78588c0.44983,-0.27883 0.88892,-0.57542 1.31463,-0.88712c0.42571,-0.31171 0.83979,-0.64029 1.23963,-0.98312c0.39983,-0.34283 0.78717,-0.70167 1.15937,-1.07388c0.37221,-0.37221 0.73104,-0.75954 1.07387,-1.15937c0.34283,-0.39983 0.67142,-0.81392 0.98313,-1.23963c0.31171,-0.42571 0.60829,-0.86479 0.88712,-1.31462c0.27883,-0.44983 0.54167,-0.91217 0.78587,-1.38438c0.24421,-0.47221 0.47154,-0.95604 0.67937,-1.44887c0.20783,-0.49283 0.39792,-0.99642 0.56763,-1.50813c0.16971,-0.51171 0.32079,-1.03329 0.45063,-1.56212c0.12983,-0.52883 0.24017,-1.06667 0.32838,-1.61088c0.08821,-0.54421 0.15604,-1.09655 0.20087,-1.65437c0.04483,-0.55783 0.05677,-1.41049 0.06812,-1.69259c-0.01135,-0.2821 -0.02329,-1.13483 -0.06812,-1.69266c-0.04483,-0.55783 -0.11267,-1.11017 -0.20087,-1.65437c-0.08821,-0.54421 -0.19854,-1.08204 -0.32838,-1.61088c-0.12983,-0.52883 -0.28092,-1.05042 -0.45063,-1.56212c-0.16971,-0.51171 -0.35979,-1.01529 -0.56763,-1.50813c-0.20783,-0.49283 -0.43517,-0.97667 -0.67937,-1.44887c-0.24421,-0.47221 -0.50704,-0.93454 -0.78588,-1.38438c-0.27883,-0.44983 -0.57542,-0.88892 -0.88712,-1.31462c-0.31171,-0.42571 -0.64029,-0.83979 -0.98313,-1.23962c-0.34283,-0.39983 -0.70167,-0.78717 -1.07387,-1.15938c-0.37221,-0.37221 -0.75954,-0.73104 -1.15938,-1.07387c-0.39983,-0.34283 -0.81392,-0.67142 -1.23963,-0.98313c-0.42571,-0.31171 -0.86479,-0.60829 -1.31462,-0.88712c-0.44983,-0.27883 -0.91217,-0.54167 -1.38438,-0.78588c-0.47221,-0.24421 -0.95604,-0.47154 -1.44887,-0.67937c-0.49283,-0.20783 -0.99642,-0.39792 -1.50813,-0.56763c-0.51171,-0.16971 -1.03329,-0.32079 -1.56212,-0.45063c-0.52883,-0.12983 -1.06667,-0.24017 -1.61088,-0.32837c-0.54421,-0.08821 -1.09655,-0.15604 -1.65438,-0.20088c-0.55783,-0.04483 -1.41053,-0.05677 -1.69262,-0.06812z"
      stroke="#ffc05f" fill="none"></path>
    <path
      d="M665.9,175.7l27.8,-48.4c0.13014,-0.24391 0.54021,-0.96868 0.78086,-1.46348c0.24065,-0.4948 0.46155,-0.99785 0.66304,-1.50532c0.20149,-0.50747 0.38334,-1.02193 0.54589,-1.53953c0.16255,-0.5176 0.30558,-1.0409 0.42941,-1.56607c0.12384,-0.52518 0.22826,-1.05478 0.31361,-1.58498c0.08535,-0.5302 0.1514,-1.06355 0.19849,-1.59623c0.04709,-0.53267 0.07499,-1.06723 0.08404,-1.59983c0.00905,-0.5326 -0.00097,-1.0658 -0.02974,-1.59577c-0.02876,-0.52997 -0.07649,-1.05927 -0.14284,-1.58407c-0.06635,-0.5248 -0.15155,-1.04765 -0.25526,-1.56473c-0.10371,-0.51708 -0.22616,-1.03093 -0.36701,-1.53773c-0.14085,-0.5068 -0.30033,-1.0091 -0.47809,-1.50307c-0.17776,-0.49398 -0.37404,-0.98218 -0.58849,-1.46078c-0.21445,-0.4786 -0.4473,-0.95015 -0.69821,-1.41082c-0.25091,-0.46067 -0.52011,-0.91302 -0.80726,-1.35322c-0.28715,-0.4402 -0.59247,-0.8708 -0.91564,-1.28798c-0.32316,-0.41718 -0.66439,-0.82347 -1.02334,-1.21507c-0.35895,-0.3916 -0.73585,-0.77105 -1.13036,-1.13453c-0.39451,-0.36348 -0.80687,-0.71353 -1.23671,-1.04632c-0.42985,-0.3328 -1.11863,-0.79205 -1.34236,-0.95046c-0.25378,-0.15031 -1.00847,-0.62539 -1.52272,-0.90189c-0.51425,-0.2765 -1.0365,-0.5285 -1.56281,-0.75713c-0.52631,-0.22862 -1.05931,-0.43312 -1.59506,-0.61462c-0.53575,-0.1815 -1.07687,-0.33925 -1.61944,-0.47437c-0.54256,-0.13513 -1.08919,-0.24688 -1.63594,-0.33638c-0.54675,-0.0895 -1.09625,-0.156 -1.64456,-0.20062c-0.54831,-0.04462 -1.09806,-0.06663 -1.64531,-0.06713c-0.54725,-0.0005 -1.09463,0.02125 -1.63819,0.06413c-0.54356,0.04288 -1.08594,0.10763 -1.62319,0.19313c-0.53725,0.0855 -1.072,0.1925 -1.60031,0.31987c-0.52831,0.12738 -1.05281,0.27587 -1.56956,0.44437c-0.51675,0.1685 -1.02837,0.35775 -1.53094,0.56662c-0.50256,0.20888 -0.99869,0.43813 -1.48444,0.68663c-0.48575,0.2485 -0.96375,0.517 -1.43006,0.80437c-0.46631,0.28737 -0.92356,0.59437 -1.36781,0.91988c-0.44425,0.3255 -0.87813,0.67025 -1.29769,1.03313c-0.41956,0.36288 -0.82744,0.74462 -1.21969,1.14412c-0.39225,0.3995 -0.7715,0.8175 -1.13381,1.25288c-0.36231,0.43537 -0.71032,0.88888 -1.04006,1.35938c-0.32975,0.47049 -0.78202,1.21966 -0.93842,1.46359l-28.40002,49.30003c-0.13118,0.25068 -0.54714,0.99715 -0.78709,1.50405c-0.23995,0.5069 -0.45715,1.02055 -0.65261,1.53735c-0.19546,0.5168 -0.36851,1.03915 -0.52016,1.56345c-0.15165,0.5243 -0.28122,1.05295 -0.38974,1.58235c-0.10851,0.5294 -0.19529,1.06195 -0.26134,1.59405c-0.06605,0.5321 -0.1107,1.06615 -0.13496,1.59855c-0.02426,0.5324 -0.02746,1.06555 -0.01061,1.59585c0.01685,0.5303 0.05443,1.06015 0.11171,1.58595c0.05729,0.5258 0.13496,1.04995 0.23201,1.56885c0.09705,0.5189 0.21415,1.03495 0.35029,1.54455c0.13614,0.5096 0.29199,1.01515 0.46654,1.51305c0.17455,0.4979 0.36847,0.99055 0.58076,1.47435c0.21229,0.4838 0.44361,0.96115 0.69296,1.42845c0.24935,0.4673 0.5174,0.92695 0.80314,1.37535c0.28574,0.4484 0.58984,0.88795 0.91129,1.31505c0.32145,0.4271 0.66093,0.84415 1.01741,1.24755c0.35649,0.4034 0.73066,0.79555 1.12151,1.17285c0.39085,0.3773 0.79905,0.74215 1.22359,1.09095c0.42454,0.3488 0.86609,0.68395 1.32364,1.00185c0.45755,0.3179 1.18469,0.75461 1.42163,0.90553c0.25068,0.13118 0.99718,0.54715 1.50408,0.7871c0.5069,0.23995 1.02055,0.45715 1.53735,0.65261c0.5168,0.19546 1.03915,0.36851 1.56345,0.52016c0.5243,0.15165 1.05295,0.28123 1.58235,0.38974c0.5294,0.10851 1.06195,0.19529 1.59405,0.26134c0.5321,0.06605 1.06615,0.1107 1.59855,0.13496c0.5324,0.02426 1.06555,0.02746 1.59585,0.01061c0.5303,-0.01685 1.06015,-0.05442 1.58595,-0.11171c0.5258,-0.05729 1.04995,-0.13496 1.56885,-0.23201c0.5189,-0.09705 1.03495,-0.21415 1.54455,-0.35029c0.5096,-0.13614 1.01515,-0.29199 1.51305,-0.46654c0.4979,-0.17455 0.99055,-0.36847 1.47435,-0.58076c0.4838,-0.21229 0.96115,-0.44361 1.42845,-0.69296c0.4673,-0.24935 0.92695,-0.5174 1.37535,-0.80314c0.4484,-0.28574 0.88795,-0.58984 1.31505,-0.91129c0.4271,-0.32145 0.84415,-0.66093 1.24755,-1.01741c0.4034,-0.35649 0.79555,-0.73066 1.17285,-1.12151c0.3773,-0.39085 0.74215,-0.79905 1.09095,-1.22359c0.3488,-0.42454 0.68395,-0.86609 1.00185,-1.32364c0.3179,-0.45755 0.75463,-1.18472 0.90555,-1.42166z"
      stroke="#ffc05f" fill="none"></path>
    <path
      d="M729.4,525.4l70.8,40.8c0.24617,0.13026 0.97816,0.54047 1.47701,0.78157c0.49885,0.2411 1.00545,0.4627 1.51609,0.66503c0.51064,0.20232 1.02779,0.38522 1.54774,0.54893c0.51995,0.1637 1.04518,0.30805 1.57196,0.43328c0.52679,0.12523 1.05761,0.23118 1.58876,0.31808c0.53115,0.0869 1.0651,0.1546 1.59814,0.20332c0.53304,0.04872 1.06764,0.07832 1.60009,0.08902c0.53245,0.0107 1.06522,0.00235 1.59461,-0.02482c0.52939,-0.02717 1.05786,-0.07333 1.58171,-0.13823c0.52385,-0.0649 1.04555,-0.1487 1.56139,-0.25117c0.51584,-0.10248 1.02829,-0.22378 1.53364,-0.36368c0.50535,-0.1399 1.00608,-0.29855 1.49846,-0.47572c0.49239,-0.17718 0.97891,-0.37303 1.45586,-0.58733c0.47695,-0.2143 0.9468,-0.4472 1.40584,-0.69848c0.45904,-0.25127 0.90974,-0.52107 1.34839,-0.80917c0.43865,-0.2881 0.86773,-0.59465 1.28351,-0.91942c0.41579,-0.32477 0.82076,-0.66792 1.21121,-1.02922c0.39045,-0.3613 0.76885,-0.7409 1.13149,-1.13857c0.36264,-0.39768 0.71199,-0.81358 1.04434,-1.24748c0.33235,-0.4339 0.79145,-1.12991 0.94974,-1.3559c0.15031,-0.25378 0.62539,-1.00847 0.90189,-1.52272c0.2765,-0.51425 0.5285,-1.0365 0.75713,-1.56281c0.22862,-0.52631 0.43312,-1.05931 0.61462,-1.59506c0.1815,-0.53575 0.33925,-1.07687 0.47438,-1.61944c0.13513,-0.54256 0.24687,-1.08919 0.33637,-1.63594c0.0895,-0.54675 0.156,-1.09625 0.20063,-1.64456c0.04462,-0.54831 0.06662,-1.09806 0.06712,-1.64531c0.0005,-0.54725 -0.02125,-1.09462 -0.06412,-1.63819c-0.04287,-0.54356 -0.10762,-1.08594 -0.19312,-1.62319c-0.0855,-0.53725 -0.1925,-1.072 -0.31988,-1.60031c-0.12738,-0.52831 -0.27588,-1.05281 -0.44438,-1.56956c-0.1685,-0.51675 -0.35775,-1.02838 -0.56662,-1.53094c-0.20888,-0.50256 -0.43813,-0.99869 -0.68663,-1.48444c-0.2485,-0.48575 -0.517,-0.96375 -0.80437,-1.43006c-0.28737,-0.46631 -0.59438,-0.92356 -0.91988,-1.36781c-0.3255,-0.44425 -0.67025,-0.87813 -1.03312,-1.29769c-0.36288,-0.41956 -0.74462,-0.82744 -1.14412,-1.21969c-0.3995,-0.39225 -0.8175,-0.7715 -1.25288,-1.13381c-0.43538,-0.36231 -0.88888,-0.71032 -1.35938,-1.04006c-0.47049,-0.32975 -1.21966,-0.78202 -1.46359,-0.93842l-71.80003,-41.40002c-0.2483,-0.13118 -0.9874,-0.54714 -1.48979,-0.78708c-0.50238,-0.23993 -1.01177,-0.45712 -1.52451,-0.65252c-0.51275,-0.19541 -1.03128,-0.36839 -1.55196,-0.51993c-0.52068,-0.15153 -1.04594,-0.28097 -1.57214,-0.38927c-0.5262,-0.10831 -1.05575,-0.19484 -1.58504,-0.26058c-0.52928,-0.06573 -1.06072,-0.11002 -1.59066,-0.13383c-0.52995,-0.02381 -1.06083,-0.02649 -1.58901,-0.00903c-0.52818,0.01747 -1.05609,0.05573 -1.58009,0.11383c-0.524,0.05809 -1.0465,0.13666 -1.56389,0.23473c-0.51738,0.09807 -1.03207,0.21628 -1.54041,0.35367c-0.50835,0.13739 -1.01278,0.29461 -1.50966,0.47068c-0.49688,0.17607 -0.98864,0.37163 -1.47164,0.58572c-0.483,0.21409 -0.95965,0.44736 -1.42634,0.69882c-0.46668,0.25147 -0.92582,0.52178 -1.37376,0.80997c-0.44795,0.28819 -0.88713,0.59491 -1.31391,0.91918c-0.42678,0.32427 -0.84359,0.66673 -1.24679,1.02643c-0.4032,0.35969 -0.7952,0.73726 -1.17239,1.13172c-0.37718,0.39447 -0.74197,0.80648 -1.09071,1.23508c-0.34875,0.42859 -0.68388,0.87441 -1.00176,1.33647c-0.31788,0.46206 -0.7546,1.19658 -0.90552,1.4359c-0.13118,0.2483 -0.54715,0.98743 -0.7871,1.48982c-0.23995,0.50238 -0.45715,1.01177 -0.65261,1.52451c-0.19546,0.51275 -0.36851,1.03128 -0.52016,1.55196c-0.15165,0.52068 -0.28123,1.04594 -0.38974,1.57214c-0.10851,0.5262 -0.19529,1.05575 -0.26134,1.58504c-0.06605,0.52928 -0.1107,1.06072 -0.13496,1.59066c-0.02426,0.52995 -0.02746,1.06083 -0.01061,1.58901c0.01685,0.52818 0.05443,1.05609 0.11171,1.58009c0.05729,0.524 0.13496,1.0465 0.23201,1.56389c0.09705,0.51738 0.21415,1.03207 0.35029,1.54041c0.13614,0.50835 0.29199,1.01278 0.46654,1.50966c0.17455,0.49688 0.36848,0.98864 0.58076,1.47164c0.21229,0.483 0.44361,0.95965 0.69296,1.42634c0.24935,0.46668 0.5174,0.92582 0.80314,1.37376c0.28574,0.44795 0.58984,0.88713 0.91129,1.31391c0.32145,0.42678 0.66093,0.84359 1.01741,1.24679c0.35649,0.4032 0.73066,0.7952 1.12151,1.17239c0.39085,0.37718 0.79905,0.74197 1.22359,1.09071c0.42454,0.34875 0.86609,0.68388 1.32364,1.00176c0.45755,0.31788 1.18472,0.75462 1.42166,0.90554z"
      stroke="#f03fa7" fill="none"></path>
    <path
      d="M379.8,589l-22.2,38.4c-0.13026,0.24617 -0.54048,0.97816 -0.78158,1.47702c-0.2411,0.49887 -0.4627,1.00548 -0.66503,1.51618c-0.20233,0.51069 -0.38522,1.02791 -0.54892,1.54798c-0.1637,0.52007 -0.30805,1.04543 -0.43327,1.57242c-0.12523,0.52699 -0.23118,1.05806 -0.31808,1.58953c-0.0869,0.53147 -0.1546,1.06578 -0.20333,1.59927c-0.04872,0.53349 -0.07833,1.06861 -0.08903,1.60167c-0.0107,0.53307 -0.00235,1.06653 0.02483,1.59673c0.02717,0.53019 0.07333,1.05956 0.13822,1.58443c0.0649,0.52487 0.1487,1.04768 0.25117,1.56477c0.10247,0.51709 0.22377,1.03091 0.36367,1.53778c0.1399,0.50687 0.29855,1.00923 0.47573,1.50342c0.17717,0.49419 0.37302,0.98266 0.58732,1.46173c0.2143,0.47907 0.4472,0.95118 0.69848,1.41268c0.25128,0.46149 0.52108,0.91481 0.80918,1.35627c0.2881,0.44147 0.59465,0.87353 0.91942,1.29252c0.32477,0.41899 0.66793,0.82736 1.02923,1.22142c0.3613,0.39407 0.7409,0.77628 1.13857,1.14298c0.39767,0.36669 0.81358,0.72031 1.24748,1.05718c0.4339,0.33686 1.12991,0.80334 1.3559,0.96401c0.25378,0.15031 1.00847,0.6254 1.52272,0.90188c0.51425,0.27648 1.0365,0.52847 1.56281,0.75704c0.52631,0.22857 1.05931,0.433 1.59506,0.61439c0.53575,0.18138 1.07688,0.33899 1.61944,0.47391c0.54256,0.13492 1.08919,0.24643 1.63594,0.33561c0.54675,0.08918 1.09625,0.15532 1.64456,0.19949c0.54831,0.04417 1.09806,0.06565 1.64531,0.06554c0.54725,-0.00012 1.09462,-0.02256 1.63819,-0.06624c0.54356,-0.04368 1.08594,-0.10932 1.62319,-0.19584c0.53725,-0.08652 1.072,-0.19463 1.60031,-0.32326c0.52831,-0.12863 1.05281,-0.2785 1.56956,-0.44851c0.51675,-0.17002 1.02838,-0.36091 1.53094,-0.57159c0.50256,-0.21068 0.99869,-0.44187 1.48444,-0.69249c0.48575,-0.25062 0.96375,-0.52138 1.43006,-0.81121c0.46631,-0.28983 0.92356,-0.59945 1.36781,-0.92776c0.44425,-0.32832 0.87813,-0.67606 1.29769,-1.04214c0.41956,-0.36608 0.82744,-0.75122 1.21969,-1.15434c0.39225,-0.40312 0.7715,-0.82493 1.13381,-1.26436c0.36231,-0.43943 0.71032,-0.8972 1.04006,-1.37221c0.32975,-0.47501 0.78202,-1.23155 0.93842,-1.47786l22.80002,-39.40003c0.13118,-0.25068 0.54714,-0.99715 0.78709,-1.50405c0.23995,-0.5069 0.45715,-1.02055 0.65261,-1.53735c0.19546,-0.5168 0.36851,-1.03915 0.52016,-1.56345c0.15165,-0.5243 0.28123,-1.05295 0.38974,-1.58235c0.10851,-0.5294 0.19529,-1.06195 0.26134,-1.59405c0.06605,-0.5321 0.1107,-1.06615 0.13496,-1.59855c0.02426,-0.5324 0.02746,-1.06555 0.01061,-1.59585c-0.01685,-0.5303 -0.05442,-1.06015 -0.11171,-1.58595c-0.05729,-0.5258 -0.13496,-1.04995 -0.23201,-1.56885c-0.09705,-0.5189 -0.21415,-1.03495 -0.35029,-1.54455c-0.13614,-0.5096 -0.29199,-1.01515 -0.46654,-1.51305c-0.17455,-0.4979 -0.36847,-0.99055 -0.58076,-1.47435c-0.21229,-0.4838 -0.44361,-0.96115 -0.69296,-1.42845c-0.24935,-0.4673 -0.5174,-0.92695 -0.80314,-1.37535c-0.28574,-0.4484 -0.58984,-0.88795 -0.91129,-1.31505c-0.32145,-0.4271 -0.66093,-0.84415 -1.01741,-1.24755c-0.35649,-0.4034 -0.73066,-0.79555 -1.12151,-1.17285c-0.39085,-0.3773 -0.79905,-0.74215 -1.22359,-1.09095c-0.42454,-0.3488 -0.86609,-0.68395 -1.32364,-1.00185c-0.45755,-0.3179 -1.18469,-0.75461 -1.42163,-0.90553c-0.25056,-0.13118 -0.99692,-0.54716 -1.50337,-0.78709c-0.50645,-0.23993 -1.0194,-0.45712 -1.53536,-0.65252c-0.51596,-0.19541 -1.03726,-0.36839 -1.56041,-0.51993c-0.52315,-0.15153 -1.05047,-0.28097 -1.57849,-0.38927c-0.52801,-0.10831 -1.05904,-0.19484 -1.58959,-0.26058c-0.53055,-0.06573 -1.06295,-0.11002 -1.59371,-0.13382c-0.53076,-0.02381 -1.06221,-0.02649 -1.59086,-0.00903c-0.52865,0.01747 -1.05683,0.05573 -1.58104,0.11383c-0.52421,0.05809 -1.04679,0.13666 -1.56424,0.23473c-0.51745,0.09807 -1.0321,0.21628 -1.54046,0.35367c-0.50836,0.13739 -1.01276,0.29461 -1.50971,0.47068c-0.49695,0.17607 -0.98877,0.37163 -1.47199,0.58573c-0.48321,0.21409 -0.96014,0.44736 -1.42729,0.69883c-0.46715,0.25147 -0.92685,0.52178 -1.37561,0.80997c-0.44876,0.28819 -0.88891,0.59491 -1.31696,0.91917c-0.42805,0.32427 -0.84633,0.66673 -1.25134,1.02643c-0.40501,0.35969 -0.79909,0.73726 -1.17874,1.13173c-0.37965,0.39447 -0.7472,0.80648 -1.09916,1.23508c-0.35196,0.42859 -0.69067,0.87441 -1.01261,1.33647c-0.32195,0.46206 -0.76591,1.19661 -0.91909,1.43592z"
      stroke="#f03fa7" fill="none"></path>
    <path
      d="M522.8,612.2l0.1,0c-0.2821,0.01135 -1.13479,0.02329 -1.69263,0.06813c-0.55783,0.04483 -1.11017,0.11267 -1.65437,0.20087c-0.54421,0.08821 -1.08204,0.19854 -1.61088,0.32838c-0.52883,0.12983 -1.05042,0.28092 -1.56212,0.45063c-0.51171,0.16971 -1.01529,0.35979 -1.50813,0.56762c-0.49283,0.20783 -0.97667,0.43517 -1.44887,0.67938c-0.47221,0.24421 -0.93454,0.50704 -1.38438,0.78587c-0.44983,0.27883 -0.88892,0.57542 -1.31462,0.88713c-0.42571,0.31171 -0.83979,0.64029 -1.23962,0.98313c-0.39983,0.34283 -0.78717,0.70167 -1.15938,1.07387c-0.37221,0.37221 -0.73104,0.75954 -1.07387,1.15938c-0.34283,0.39983 -0.67142,0.81392 -0.98312,1.23963c-0.31171,0.42571 -0.60829,0.86479 -0.88713,1.31462c-0.27883,0.44983 -0.54167,0.91217 -0.78588,1.38437c-0.24421,0.47221 -0.47154,0.95604 -0.67937,1.44888c-0.20783,0.49283 -0.39792,0.99642 -0.56762,1.50813c-0.16971,0.51171 -0.32079,1.03329 -0.45063,1.56212c-0.12983,0.52883 -0.24017,1.06667 -0.32837,1.61087c-0.08821,0.54421 -0.15604,1.09655 -0.20087,1.65437c-0.04483,0.55783 -0.05677,1.41049 -0.06812,1.69259l0,65.40003c0.01026,0.27833 0.02097,1.11734 0.06157,1.66997c0.0406,0.55263 0.10195,1.10227 0.18203,1.64583c0.08008,0.54356 0.18023,1.08309 0.29843,1.61552c0.1182,0.53243 0.2558,1.05982 0.41078,1.57908c0.15497,0.51926 0.32867,1.03244 0.51907,1.53647c0.1904,0.50403 0.39885,1.00097 0.62333,1.48772c0.22447,0.48676 0.46632,0.96539 0.72352,1.43282c0.2572,0.46743 0.5311,0.92572 0.81968,1.37178c0.28858,0.44606 0.59318,0.88194 0.91178,1.30458c0.3186,0.42263 0.65255,0.83407 0.99982,1.23122c0.34727,0.39716 0.70923,0.78209 1.08382,1.15173c0.3746,0.36963 0.7632,0.72602 1.16377,1.06607c0.40058,0.34006 0.81447,0.66584 1.23967,0.97427c0.4252,0.30843 0.86305,0.60157 1.31152,0.87633c0.44848,0.27476 0.90893,0.53319 1.37933,0.77222c0.4704,0.23903 0.9521,0.46072 1.44307,0.66197c0.49097,0.20126 0.99257,0.38414 1.50278,0.54558c0.5102,0.16143 1.03035,0.30347 1.55842,0.42302c0.52807,0.11956 1.06543,0.21869 1.61002,0.29432c0.54459,0.07563 1.38128,0.13289 1.65754,0.15947c0.29246,0.00254 1.17562,0.03442 1.75478,0.01524c0.57917,-0.01918 1.15358,-0.06362 1.72025,-0.13034c0.56667,-0.06672 1.12758,-0.1577 1.67975,-0.26999c0.55217,-0.11228 1.09758,-0.24784 1.63325,-0.40371c0.53567,-0.15587 1.06358,-0.33403 1.58075,-0.53151c0.51717,-0.19748 1.02558,-0.41627 1.52225,-0.65339c0.49667,-0.23712 0.98358,-0.49455 1.45775,-0.76934c0.47417,-0.27478 0.93758,-0.56889 1.38725,-0.87936c0.44967,-0.31047 0.88758,-0.63928 1.31075,-0.98346c0.42317,-0.34418 0.83358,-0.70572 1.22825,-1.08164c0.39467,-0.37592 0.77558,-0.7682 1.13975,-1.17389c0.36417,-0.40568 0.71358,-0.82674 1.04525,-1.26021c0.33167,-0.43347 0.64758,-0.88133 0.94475,-1.34061c0.29717,-0.45928 0.57758,-0.93197 0.83825,-1.41509c0.26067,-0.48312 0.50358,-0.97865 0.72575,-1.48364c0.22217,-0.50498 0.42558,-1.02139 0.60725,-1.54626c0.18167,-0.52487 0.34358,-1.06018 0.48275,-1.60296c0.13917,-0.54278 0.25758,-1.09502 0.35225,-1.65374c0.09467,-0.55872 0.16758,-1.12591 0.21575,-1.69859c0.04817,-0.57268 0.06104,-1.4479 0.07325,-1.73748l0,-66.60004c-0.01148,-0.27985 -0.02355,-1.1253 -0.06885,-1.67909c-0.0453,-0.55378 -0.11385,-1.10257 -0.20295,-1.64361c-0.0891,-0.54105 -0.20055,-1.07618 -0.33165,-1.60266c-0.1311,-0.52648 -0.28365,-1.04614 -0.45495,-1.55624c-0.1713,-0.5101 -0.36315,-1.01245 -0.57285,-1.50434c-0.2097,-0.49188 -0.43905,-0.97512 -0.68535,-1.44696c-0.2463,-0.47185 -0.51135,-0.93413 -0.79245,-1.38411c-0.2811,-0.44998 -0.58005,-0.88949 -0.89415,-1.31579c-0.3141,-0.4263 -0.64515,-0.8412 -0.99045,-1.24199c-0.3453,-0.40078 -0.70665,-0.78927 -1.08135,-1.16271c-0.3747,-0.37345 -0.76455,-0.73368 -1.16685,-1.07796c-0.4023,-0.34428 -0.81885,-0.67444 -1.24695,-0.98774c-0.4281,-0.3133 -0.86955,-0.61155 -1.32165,-0.89204c-0.4521,-0.28048 -0.91665,-0.54502 -1.39095,-0.79086c-0.4743,-0.24585 -0.96015,-0.47483 -1.45485,-0.68421c-0.4947,-0.20938 -1.00005,-0.40099 -1.51335,-0.57209c-0.5133,-0.1711 -1.03635,-0.3235 -1.56645,-0.45449c-0.5301,-0.13098 -1.06905,-0.24237 -1.61415,-0.33141c-0.5451,-0.08905 -1.09816,-0.15758 -1.65645,-0.20286c-0.55829,-0.04528 -1.31113,-0.05736 -1.59335,-0.06884"
      stroke="#34cff0" fill="none"></path>
    <path
      d="M415.5,155l-27.5,-47.6c-0.14807,-0.23579 -0.57687,-0.95692 -0.8884,-1.41474c-0.31153,-0.45782 -0.63957,-0.90238 -0.9808,-1.33216c-0.34123,-0.42978 -0.69787,-0.8458 -1.0666,-1.24651c-0.36873,-0.40072 -0.75177,-0.78716 -1.1458,-1.15779c-0.39403,-0.37063 -0.80127,-0.72647 -1.2184,-1.06599c-0.41713,-0.33952 -0.84637,-0.66373 -1.2844,-0.97111c-0.43803,-0.30738 -0.88707,-0.59895 -1.3438,-0.87316c-0.45673,-0.27422 -0.92337,-0.53211 -1.3966,-0.77214c-0.47323,-0.24003 -0.95527,-0.46322 -1.4428,-0.66804c-0.48753,-0.20482 -0.98277,-0.39228 -1.4824,-0.56086c-0.49963,-0.16858 -1.00587,-0.3193 -1.5154,-0.45061c-0.50953,-0.13132 -1.02457,-0.24426 -1.5418,-0.33729c-0.51723,-0.09303 -1.03887,-0.16717 -1.5616,-0.22089c-0.52273,-0.05372 -1.04877,-0.08803 -1.5748,-0.10141c-0.52603,-0.01338 -1.05427,-0.00685 -1.5814,0.02114c-0.52713,0.02798 -1.05537,0.07639 -1.5814,0.14676c-0.52603,0.07037 -1.05207,0.16168 -1.5748,0.27546c-0.52273,0.11378 -1.04437,0.24902 -1.5616,0.40724c-0.51723,0.15822 -1.03227,0.33841 -1.5418,0.54209c-0.50953,0.20368 -1.26281,0.56666 -1.51537,0.68c-0.25632,0.1444 -1.04289,0.55971 -1.53796,0.86644c-0.49507,0.30673 -0.97288,0.63272 -1.43247,0.97398c-0.45959,0.34126 -0.90161,0.70044 -1.32508,1.07358c-0.42347,0.37313 -0.82903,0.76287 -1.21572,1.16523c-0.38669,0.40236 -0.75516,0.81999 -1.10443,1.24892c-0.34927,0.42893 -0.67998,0.87182 -0.99117,1.32467c-0.31119,0.45286 -0.60351,0.91834 -0.87598,1.39247c-0.27247,0.47413 -0.52573,0.95957 -0.75882,1.45233c-0.23309,0.49276 -0.44666,0.99549 -0.63972,1.50423c-0.19307,0.50873 -0.36628,1.02612 -0.51868,1.54817c-0.15239,0.52206 -0.28461,1.05144 -0.39567,1.58417c-0.11107,0.53273 -0.20163,1.07147 -0.27072,1.61223c-0.06909,0.54076 -0.11736,1.08619 -0.14383,1.63232c-0.02647,0.54613 -0.03178,1.09562 -0.01497,1.64448c0.01681,0.54886 0.05509,1.09974 0.11582,1.64867c0.06073,0.54893 0.14327,1.09857 0.24857,1.64493c0.10531,0.54636 0.23274,1.09209 0.38328,1.63322c0.15053,0.54113 0.32352,1.08032 0.51993,1.61357c0.19641,0.53326 0.41559,1.06325 0.65852,1.58598c0.24293,0.52273 0.66588,1.292 0.79906,1.55039l28.20002,48.60003c0.1508,0.2392 0.58739,0.9736 0.90482,1.43521c0.31743,0.46162 0.65187,0.90673 0.99978,1.33449c0.34791,0.42775 0.71164,0.83872 1.08767,1.23204c0.37603,0.39332 0.76672,0.76956 1.16852,1.12786c0.40181,0.3583 0.81709,0.69925 1.24232,1.02196c0.42523,0.32272 0.86277,0.62778 1.30908,0.91434c0.44631,0.28655 0.90374,0.55517 1.36877,0.80499c0.46503,0.24982 0.94002,0.48141 1.42143,0.69391c0.48141,0.2125 0.97159,0.4065 1.46703,0.58111c0.49543,0.17462 0.99847,0.33043 1.50557,0.46659c0.50711,0.13615 1.02064,0.25322 1.53707,0.35034c0.51643,0.09712 1.03812,0.17486 1.56153,0.23236c0.52341,0.0575 1.05089,0.09535 1.57892,0.11266c0.52803,0.01732 1.05897,0.01468 1.58928,-0.00876c0.53031,-0.02345 1.06234,-0.06713 1.59258,-0.13191c0.53023,-0.06478 1.06102,-0.15009 1.58883,-0.25679c0.52781,-0.1067 1.05499,-0.2342 1.57802,-0.38339c0.52303,-0.14918 1.04427,-0.31947 1.56018,-0.51171c0.51591,-0.19225 1.02885,-0.40588 1.53527,-0.64176c0.50643,-0.23588 1.25275,-0.6446 1.5033,-0.77352c0.2392,-0.15093 0.97363,-0.58767 1.43524,-0.90557c0.46162,-0.3179 0.90673,-0.65305 1.33449,-1.00185c0.42775,-0.3488 0.83872,-0.71365 1.23204,-1.09095c0.39332,-0.3773 0.76956,-0.76945 1.12786,-1.17285c0.3583,-0.4034 0.69925,-0.82045 1.02196,-1.24755c0.32272,-0.4271 0.62778,-0.86665 0.91434,-1.31505c0.28655,-0.4484 0.55517,-0.90805 0.80499,-1.37535c0.24982,-0.4673 0.48141,-0.94465 0.69391,-1.42845c0.2125,-0.4838 0.4065,-0.97645 0.58111,-1.47435c0.17462,-0.4979 0.33043,-1.00345 0.46659,-1.51305c0.13615,-0.5096 0.25322,-1.02565 0.35034,-1.54455c0.09712,-0.5189 0.17486,-1.04305 0.23236,-1.56885c0.0575,-0.5258 0.09535,-1.05565 0.11266,-1.58595c0.01732,-0.5303 0.01468,-1.06345 -0.00876,-1.59585c-0.02345,-0.5324 -0.06713,-1.06645 -0.13191,-1.59855c-0.06478,-0.5321 -0.15009,-1.06465 -0.25679,-1.59405c-0.1067,-0.5294 -0.2342,-1.05805 -0.38339,-1.58235c-0.14918,-0.5243 -0.31947,-1.04665 -0.51171,-1.56345c-0.19225,-0.5168 -0.40588,-1.03045 -0.64176,-1.53735c-0.23588,-0.5069 -0.6446,-1.25335 -0.77352,-1.50402z"
      stroke="#34cff0" fill="none"></path>
    <path
      d="M750,274.9l64.2,-37c0.23579,-0.14819 0.95692,-0.57713 1.41474,-0.88911c0.45782,-0.31198 0.90238,-0.64072 1.33216,-0.98279c0.42978,-0.34207 0.8458,-0.69975 1.24651,-1.06964c0.40072,-0.36988 0.78716,-0.75424 1.15779,-1.14966c0.37063,-0.39542 0.72647,-0.80418 1.06599,-1.22286c0.33952,-0.41868 0.66373,-0.84957 0.97111,-1.28924c0.30738,-0.43967 0.59895,-0.8904 0.87316,-1.34879c0.27422,-0.45838 0.53211,-0.92669 0.77214,-1.40151c0.24003,-0.47482 0.46322,-0.95843 0.66804,-1.44741c0.20482,-0.48898 0.39228,-0.98562 0.56086,-1.48649c0.16858,-0.50087 0.3193,-1.00825 0.45061,-1.51874c0.13132,-0.51048 0.24426,-1.02634 0.33729,-1.54416c0.09303,-0.51782 0.16717,-1.03988 0.22089,-1.56276c0.05372,-0.52288 0.08803,-1.04887 0.10141,-1.57454c0.01338,-0.52567 0.00685,-1.0533 -0.02114,-1.57949c-0.02798,-0.52618 -0.07639,-1.05319 -0.14676,-1.57761c-0.07037,-0.52442 -0.16168,-1.04853 -0.27546,-1.56891c-0.11378,-0.52038 -0.24902,-1.03932 -0.40724,-1.55339c-0.15822,-0.51407 -0.33841,-1.02556 -0.54209,-1.53104c-0.20368,-0.50548 -0.56666,-1.25153 -0.68,-1.50183c-0.1444,-0.25644 -0.55971,-1.04315 -0.86644,-1.53867c-0.30673,-0.49552 -0.63272,-0.97403 -0.97397,-1.43446c-0.34126,-0.46043 -0.70044,-0.9035 -1.07358,-1.32811c-0.37313,-0.42462 -0.76287,-0.83151 -1.16522,-1.21959c-0.40236,-0.38808 -0.81999,-0.75807 -1.24893,-1.10889c-0.42893,-0.35082 -0.87182,-0.68318 -1.32467,-0.99601c-0.45286,-0.31283 -0.91834,-0.60685 -1.39248,-0.88096c-0.47413,-0.27412 -0.95957,-0.52906 -1.45232,-0.76374c-0.49276,-0.23468 -0.99549,-0.44982 -1.50422,-0.64434c-0.50873,-0.19452 -1.02612,-0.36913 -1.54818,-0.52276c-0.52206,-0.15363 -1.05144,-0.287 -1.58417,-0.39901c-0.53273,-0.11202 -1.07147,-0.20341 -1.61223,-0.27309c-0.54076,-0.06968 -1.08619,-0.11837 -1.63232,-0.14499c-0.54613,-0.02662 -1.09562,-0.03188 -1.64447,-0.01471c-0.54886,0.01717 -1.09974,0.05605 -1.64868,0.11774c-0.54893,0.06168 -1.09857,0.14544 -1.64492,0.25236c-0.54636,0.10692 -1.09209,0.23628 -1.63323,0.38916c-0.54113,0.15288 -1.08032,0.32857 -1.61357,0.52814c-0.53326,0.19957 -1.06325,0.42231 -1.58597,0.66929c-0.52273,0.24698 -1.292,0.67716 -1.55039,0.81259l-65.20003,37.60002c-0.23694,0.15093 -0.96411,0.58765 -1.42166,0.90555c-0.45755,0.3179 -0.8991,0.65305 -1.32364,1.00185c-0.42454,0.3488 -0.83274,0.71365 -1.22359,1.09095c-0.39085,0.3773 -0.76502,0.76945 -1.12151,1.17285c-0.35649,0.4034 -0.69596,0.82045 -1.01741,1.24755c-0.32145,0.4271 -0.62555,0.86665 -0.91129,1.31505c-0.28574,0.4484 -0.55379,0.90805 -0.80314,1.37535c-0.24935,0.4673 -0.48067,0.94465 -0.69296,1.42845c-0.21229,0.4838 -0.40621,0.97645 -0.58076,1.47435c-0.17455,0.4979 -0.3304,1.00345 -0.46654,1.51305c-0.13614,0.5096 -0.25324,1.02565 -0.35029,1.54455c-0.09705,0.5189 -0.17473,1.04305 -0.23201,1.56885c-0.05729,0.5258 -0.09486,1.05565 -0.11171,1.58595c-0.01685,0.5303 -0.01365,1.06345 0.01061,1.59585c0.02426,0.5324 0.06891,1.06645 0.13496,1.59855c0.06605,0.5321 0.15283,1.06465 0.26134,1.59405c0.10851,0.5294 0.23809,1.05805 0.38974,1.58235c0.15165,0.5243 0.3247,1.04665 0.52016,1.56345c0.19546,0.5168 0.41267,1.03045 0.65261,1.53735c0.23995,0.5069 0.65589,1.25335 0.78707,1.50402c0.1508,0.23694 0.58741,0.96414 0.90484,1.42169c0.31743,0.45755 0.65187,0.8991 0.99978,1.32364c0.34791,0.42454 0.71164,0.83274 1.08767,1.22359c0.37603,0.39085 0.76672,0.76502 1.16853,1.12151c0.40181,0.35649 0.81709,0.69596 1.24232,1.01741c0.42523,0.32145 0.86277,0.62555 1.30908,0.91129c0.44631,0.28574 0.90374,0.55379 1.36878,0.80314c0.46503,0.24935 0.94002,0.48068 1.42142,0.69296c0.48141,0.21229 0.97159,0.40621 1.46703,0.58076c0.49543,0.17455 0.99847,0.3304 1.50557,0.46654c0.50711,0.13614 1.02064,0.25324 1.53707,0.35029c0.51643,0.09705 1.03812,0.17473 1.56153,0.23201c0.52341,0.05729 1.05089,0.09486 1.57893,0.11171c0.52803,0.01685 1.05897,0.01365 1.58927,-0.01061c0.53031,-0.02426 1.06234,-0.06891 1.59258,-0.13496c0.53023,-0.06605 1.06102,-0.15282 1.58883,-0.26134c0.52781,-0.10851 1.05499,-0.23809 1.57803,-0.38974c0.52303,-0.15165 1.04427,-0.3247 1.56017,-0.52016c0.51591,-0.19546 1.02885,-0.41267 1.53527,-0.65261c0.50643,-0.23995 1.25278,-0.65591 1.50333,-0.78709z"
      stroke="#34cff0" fill="none"></path>
    <path
      d="M522.9,152.4c0.27985,-0.01135 1.1253,-0.02329 1.67909,-0.06813c0.55378,-0.04483 1.10257,-0.11267 1.64361,-0.20087c0.54105,-0.08821 1.07618,-0.19854 1.60266,-0.32838c0.52648,-0.12983 1.04614,-0.28092 1.55624,-0.45062c0.5101,-0.16971 1.01245,-0.35979 1.50434,-0.56763c0.49188,-0.20783 0.97512,-0.43517 1.44696,-0.67937c0.47185,-0.24421 0.93413,-0.50704 1.38411,-0.78588c0.44998,-0.27883 0.88949,-0.57542 1.31579,-0.88712c0.4263,-0.31171 0.8412,-0.64029 1.24199,-0.98312c0.40078,-0.34283 0.78927,-0.70167 1.16271,-1.07388c0.37345,-0.37221 0.73368,-0.75954 1.07796,-1.15937c0.34428,-0.39983 0.67444,-0.81392 0.98774,-1.23963c0.3133,-0.42571 0.61155,-0.86479 0.89204,-1.31463c0.28048,-0.44983 0.54502,-0.91217 0.79086,-1.38438c0.24585,-0.47221 0.47483,-0.95604 0.68421,-1.44887c0.20938,-0.49283 0.40099,-0.99642 0.57209,-1.50813c0.1711,-0.51171 0.3235,-1.03329 0.45449,-1.56213c0.13098,-0.52883 0.24237,-1.06667 0.33141,-1.61088c0.08905,-0.54421 0.15758,-1.09655 0.20286,-1.65438c0.04528,-0.55783 0.05736,-1.41049 0.06884,-1.69259l0,-82.00003c-0.01038,-0.27833 -0.02124,-1.11734 -0.06229,-1.66998c-0.04105,-0.55263 -0.1031,-1.10227 -0.18401,-1.64582c-0.08091,-0.54356 -0.18211,-1.08309 -0.30146,-1.61552c-0.11935,-0.53243 -0.25827,-1.05982 -0.41464,-1.57907c-0.15636,-0.51926 -0.33159,-1.03244 -0.52354,-1.53647c-0.19195,-0.50403 -0.40205,-1.00097 -0.62816,-1.48772c-0.22611,-0.48676 -0.46966,-0.96539 -0.72851,-1.43283c-0.25885,-0.46743 -0.53442,-0.92572 -0.82459,-1.37177c-0.29016,-0.44606 -0.59634,-0.88194 -0.91639,-1.30457c-0.32005,-0.42263 -0.6554,-0.83407 -1.00391,-1.23123c-0.34851,-0.39716 -0.71161,-0.78209 -1.08716,-1.15172c-0.37555,-0.36963 -0.76497,-0.72602 -1.16614,-1.06607c-0.40116,-0.34006 -0.81549,-0.66584 -1.24084,-0.97428c-0.42535,-0.30843 -0.86315,-0.60157 -1.31126,-0.87633c-0.44811,-0.27476 -0.90796,-0.53319 -1.37741,-0.77223c-0.46945,-0.23903 -0.94993,-0.46072 -1.43929,-0.66197c-0.48936,-0.20126 -0.98904,-0.38414 -1.49689,-0.54557c-0.50785,-0.16143 -1.0253,-0.30347 -1.55021,-0.42303c-0.52491,-0.11956 -1.05872,-0.21869 -1.59926,-0.29433c-0.54054,-0.07563 -1.37,-0.13289 -1.644,-0.15947c-0.29471,-0.00254 -1.1851,-0.03442 -1.76832,-0.01524c-0.58322,0.01918 -1.16118,0.06362 -1.73101,0.13034c-0.56983,0.06672 -1.13345,0.1577 -1.68796,0.26999c-0.55452,0.11228 -1.10186,0.24784 -1.63914,0.40371c-0.53728,0.15587 -1.06642,0.33403 -1.58454,0.53151c-0.51812,0.19748 -1.02713,0.41627 -1.52416,0.65339c-0.49703,0.23712 -0.984,0.49455 -1.45801,0.76934c-0.47402,0.27478 -0.93701,0.56889 -1.38609,0.87936c-0.44908,0.31047 -0.88617,0.63928 -1.30839,0.98346c-0.42222,0.34418 -0.83148,0.70572 -1.22491,1.08164c-0.39343,0.37592 -0.77295,0.7682 -1.13566,1.17389c-0.36272,0.40568 -0.71056,0.82674 -1.04064,1.26021c-0.33008,0.43347 -0.64432,0.88133 -0.93984,1.34061c-0.29552,0.45928 -0.57423,0.93197 -0.83326,1.41509c-0.25903,0.48312 -0.5003,0.97865 -0.72091,1.48364c-0.22062,0.50498 -0.42251,1.02139 -0.60279,1.54626c-0.18028,0.52487 -0.34087,1.06018 -0.47889,1.60296c-0.13802,0.54278 -0.25538,1.09502 -0.34921,1.65374c-0.09383,0.55872 -0.16605,1.12591 -0.21376,1.69859c-0.04772,0.57268 -0.06045,1.4479 -0.07254,1.73748l0,83.20004c0.01135,0.2821 0.02329,1.13479 0.06812,1.69262c0.04483,0.55783 0.11267,1.11017 0.20088,1.65438c0.08821,0.54421 0.19854,1.08204 0.32837,1.61087c0.12983,0.52883 0.28092,1.05042 0.45063,1.56213c0.16971,0.51171 0.35979,1.01529 0.56762,1.50813c0.20783,0.49283 0.43517,0.97667 0.67938,1.44887c0.24421,0.47221 0.50704,0.93454 0.78587,1.38437c0.27883,0.44983 0.57542,0.88892 0.88713,1.31463c0.31171,0.42571 0.64029,0.83979 0.98313,1.23963c0.34283,0.39983 0.70167,0.78717 1.07387,1.15937c0.37221,0.37221 0.75954,0.73104 1.15938,1.07387c0.39983,0.34283 0.81392,0.67142 1.23962,0.98313c0.42571,0.31171 0.86479,0.60829 1.31463,0.88712c0.44983,0.27883 0.91217,0.54167 1.38437,0.78588c0.47221,0.24421 0.95604,0.47154 1.44887,0.67937c0.49283,0.20783 0.99642,0.39792 1.50813,0.56762c0.51171,0.16971 1.03329,0.32079 1.56213,0.45063c0.52883,0.12983 1.06667,0.24017 1.61088,0.32838c0.54421,0.08821 1.09655,0.15604 1.65437,0.20087c0.55783,0.04483 1.41053,0.05677 1.69263,0.06812z"
      stroke="#4f7bd5" fill="none"></path>
    <path
      d="M295.7,489.7h0.1l-63.8,36.8c-0.23579,0.14807 -0.95692,0.57687 -1.41474,0.8884c-0.45782,0.31153 -0.90238,0.63957 -1.33216,0.9808c-0.42978,0.34123 -0.8458,0.69787 -1.24651,1.0666c-0.40072,0.36873 -0.78716,0.75177 -1.15779,1.1458c-0.37063,0.39403 -0.72647,0.80127 -1.06599,1.2184c-0.33952,0.41713 -0.66373,0.84637 -0.97111,1.2844c-0.30738,0.43803 -0.59895,0.88707 -0.87316,1.3438c-0.27422,0.45673 -0.53211,0.92337 -0.77214,1.3966c-0.24003,0.47323 -0.46322,0.95527 -0.66804,1.4428c-0.20482,0.48753 -0.39228,0.98277 -0.56086,1.4824c-0.16858,0.49963 -0.3193,1.00587 -0.45061,1.5154c-0.13132,0.50953 -0.24426,1.02457 -0.33729,1.5418c-0.09303,0.51723 -0.16717,1.03887 -0.22089,1.5616c-0.05372,0.52273 -0.08803,1.04877 -0.10141,1.5748c-0.01338,0.52603 -0.00685,1.05427 0.02114,1.5814c0.02798,0.52713 0.07639,1.05537 0.14676,1.5814c0.07037,0.52603 0.16168,1.05207 0.27546,1.5748c0.11378,0.52273 0.24902,1.04437 0.40724,1.5616c0.15822,0.51723 0.33841,1.03227 0.54209,1.5418c0.20368,0.50953 0.56666,1.26281 0.68,1.51537c0.1444,0.25632 0.55971,1.04289 0.86644,1.53796c0.30673,0.49507 0.63272,0.97288 0.97398,1.43247c0.34126,0.45959 0.70044,0.90161 1.07357,1.32508c0.37313,0.42347 0.76287,0.82903 1.16523,1.21573c0.40236,0.38669 0.81999,0.75516 1.24892,1.10442c0.42893,0.34927 0.87182,0.67998 1.32467,0.99117c0.45286,0.31119 0.91834,0.60351 1.39247,0.87597c0.47413,0.27247 0.95957,0.52573 1.45233,0.75883c0.49276,0.23309 0.99549,0.44666 1.50423,0.63973c0.50873,0.19307 1.02612,0.36628 1.54817,0.51867c0.52206,0.15239 1.05144,0.28461 1.58417,0.39568c0.53273,0.11107 1.07147,0.20163 1.61222,0.27072c0.54076,0.06909 1.08619,0.11736 1.63233,0.14383c0.54613,0.02647 1.09562,0.03178 1.64448,0.01497c0.54886,-0.01681 1.09974,-0.05509 1.64867,-0.11582c0.54893,-0.06073 1.09857,-0.14327 1.64493,-0.24858c0.54636,-0.10531 1.09209,-0.23274 1.63322,-0.38327c0.54113,-0.15053 1.08032,-0.32352 1.61357,-0.51992c0.53326,-0.19641 1.06325,-0.41559 1.58598,-0.65853c0.52273,-0.24293 1.292,-0.66588 1.55039,-0.79906l64.70003,-37.40002c0.23932,-0.15093 0.97386,-0.58765 1.43592,-0.90555c0.46207,-0.3179 0.90788,-0.65305 1.33648,-1.00185c0.42859,-0.3488 0.84061,-0.71365 1.23508,-1.09095c0.39447,-0.3773 0.77203,-0.76945 1.13172,-1.17285c0.35969,-0.4034 0.70216,-0.82045 1.02642,-1.24755c0.32427,-0.4271 0.63098,-0.86665 0.91917,-1.31505c0.28819,-0.4484 0.55851,-0.90805 0.80997,-1.37535c0.25147,-0.4673 0.48473,-0.94465 0.69883,-1.42845c0.21409,-0.4838 0.40966,-0.97645 0.58573,-1.47435c0.17607,-0.4979 0.33328,-1.00345 0.47067,-1.51305c0.13739,-0.5096 0.25561,-1.02565 0.35368,-1.54455c0.09807,-0.5189 0.17663,-1.04305 0.23472,-1.56885c0.05809,-0.5258 0.09636,-1.05565 0.11382,-1.58595c0.01747,-0.5303 0.01478,-1.06345 -0.00903,-1.59585c-0.02381,-0.5324 -0.06809,-1.06645 -0.13383,-1.59855c-0.06573,-0.5321 -0.15227,-1.06465 -0.26058,-1.59405c-0.10831,-0.5294 -0.23774,-1.05805 -0.38927,-1.58235c-0.15153,-0.5243 -0.32452,-1.04665 -0.51993,-1.56345c-0.19541,-0.5168 -0.41259,-1.03045 -0.65253,-1.53735c-0.23993,-0.5069 -0.65588,-1.25335 -0.78706,-1.50402c-0.15093,-0.23694 -0.58767,-0.96414 -0.90557,-1.42169c-0.3179,-0.45755 -0.65305,-0.8991 -1.00185,-1.32364c-0.3488,-0.42454 -0.71365,-0.83274 -1.09095,-1.22359c-0.3773,-0.39085 -0.76945,-0.76502 -1.17285,-1.12151c-0.4034,-0.35649 -0.82045,-0.69596 -1.24755,-1.01741c-0.4271,-0.32145 -0.86665,-0.62555 -1.31505,-0.91129c-0.4484,-0.28574 -0.90805,-0.55379 -1.37535,-0.80314c-0.4673,-0.24935 -0.94465,-0.48067 -1.42845,-0.69296c-0.4838,-0.21229 -0.97645,-0.40621 -1.47435,-0.58076c-0.4979,-0.17455 -1.00345,-0.3304 -1.51305,-0.46654c-0.5096,-0.13614 -1.02565,-0.25324 -1.54455,-0.35029c-0.5189,-0.09705 -1.04305,-0.17472 -1.56885,-0.23201c-0.5258,-0.05729 -1.05565,-0.09486 -1.58595,-0.11171c-0.5303,-0.01685 -1.06345,-0.01365 -1.59585,0.01061c-0.5324,0.02426 -1.06645,0.06891 -1.59855,0.13496c-0.5321,0.06605 -1.06465,0.15282 -1.59405,0.26134c-0.5294,0.10851 -1.05805,0.23809 -1.58235,0.38974c-0.5243,0.15165 -1.04665,0.3247 -1.56345,0.52016c-0.5168,0.19546 -1.03045,0.41267 -1.53735,0.65261c-0.5069,0.23995 -1.15338,0.65591 -1.40405,0.78709"
      stroke="#4f7bd5" fill="none"></path>
  </g>
  <g id="__meta_viewbox__">
    <path d="M0,0h1024v1024h-1024" stroke="#ffffff" fill="none"></path>
  </g>
  <g id="1">
    <path
      d="M610.9,336c0,-1.5464 -1.2536,-2.8 -2.8,-2.8c-1.5464,0 -2.8,1.2536 -2.8,2.8c0,1.5464 1.2536,2.8 2.8,2.8c1.5464,0 2.8,-1.2536 2.8,-2.8"
      stroke="#3957b6" fill="none"></path>
    <path
      d="M435.52866,399.50419c8.21945,41.71851 44.80082,71.79581 87.32133,71.79581c42.52051,0 79.10189,-30.07728 87.32134,-71.79579"
      stroke="#3957b6" fill="none"></path>
  </g>
  <g id="2">
    <path
      d="M520.98617,362.92859c1.48623,-41.2625 -28.35969,-77.01435 -69.2241,-82.9222c-40.86441,-5.90785 -79.61405,19.92701 -89.87521,59.9209c-22.92865,87.10013 27.58128,176.63751 113.9875,202.05643c86.40622,25.41892 177.35718,-22.5035 205.24543,-108.14463c27.88824,-85.64112 -17.40422,-177.92996 -102.20969,-208.26455c-84.80547,-30.33459 -178.35616,12.29059 -211.11211,96.19055"
      stroke="#3957b6" fill="none"></path>
  </g>
  <g id="3">
    <path d="M676.45599,115.98621l-28.4,49.3" stroke="#ffc05f" fill="none">
    </path>
    <path d="M680.55328,655.60228l-32.5,-56.3" stroke="#ffc05f" fill="none">
    </path>
    <path d="M196.6,382.29315h75.9" stroke="#ffc05f" fill="none"></path>
  </g>
  <g id="4">
    <path d="M811.5066,548.95184l-71.8,-41.4" stroke="#f03fa7" fill="none">
    </path>
    <path d="M374.86422,638.67879l22.8,-39.4" stroke="#f03fa7" fill="none">
    </path>
  </g>
  <g id="5">
    <path d="M804.89455,219.45118l-65.2,37.6" stroke="#34cff0" fill="none">
    </path>
    <path d="M522.89315,699.4v-66.6" stroke="#34cff0" fill="none"></path>
    <path d="M369.52366,116.65788l28.2,48.6" stroke="#34cff0" fill="none">
    </path>
  </g>
  <g id="6">
    <path d="M241.28718,544.95937l64.7,-37.4" stroke="#4f7bd5" fill="none">
    </path>
    <path d="M522.90685,48.6v83.2" stroke="#4f7bd5" fill="none"></path>
  </g>
  <g id="7">
    <path d="M827.4,382.30685h-54.1" stroke="#d3b997" fill="none"></path>
    <path d="M249.70228,224.55328l56.3,32.5" stroke="#d3b997" fill="none">
    </path>
  </g>
</svg>