<?xml version="1.0"?>
<svg xmlns="http://www.w3.org/2000/svg" xmlns:lc="https://librecad.org" xmlns:xlink="http://www.w3.org/1999/xlink" width="166.594686mm" height="171.0318665mm" viewBox="0 0 166.594686 171.0318665">
    <g lc:layername="0" lc:is_locked="false" lc:is_construction="false" fill="none" stroke="black" stroke-width="1"/>
    <g lc:layername="beige" lc:is_locked="false" lc:is_construction="false" fill="none" stroke="black" stroke-width="1">
        <line x1="152.4394955" y1="87.291347" x2="166.594686" y2="87.291347"/>
        <line x1="14.036128" y1="45.6327535" x2="28.7998595" y2="54.1523265"/>
    </g>
    <g lc:layername="blue" lc:is_locked="false" lc:is_construction="false" fill="none" stroke="black" stroke-width="1">
        <line x1="86.187912" y1="0" x2="86.187912" y2="21.013305"/>
        <line x1="12.24651201" y1="129.99616903" x2="28.8130885" y2="120.4303675"/>
    </g>
    <g lc:layername="magenta" lc:is_locked="false" lc:is_construction="false" fill="none" stroke="black" stroke-width="1">
        <line x1="143.5495065" y1="120.4303675" x2="162.4142745" y2="131.304729"/>
        <line x1="47.095774" y1="154.9981365" x2="53.0488915" y2="144.705858"/>
    </g>
    <g lc:layername="mint" lc:is_locked="false" lc:is_construction="false" fill="none" stroke="black" stroke-width="1">
        <line x1="143.5495065" y1="54.1523265" x2="160.668027" y2="44.2833805"/>
        <line x1="86.187912" y1="171.0318665" x2="86.187912" y2="153.569388"/>
        <line x1="45.693484" y1="17.1503935" x2="53.062121" y2="29.876836"/>
    </g>
    <g lc:layername="navy" lc:is_locked="false" lc:is_construction="false" fill="none" stroke="black" stroke-width="1">
        <path d="M85.64339138,82.13795367 L85.63668176,80.11071444 L85.42203483,78.10479208 L84.9901579,76.19327073 L84.42897876,74.2308356 L83.38187742,71.7928307 L82.08355988,69.56094722 L80.53856479,67.51632779 L78.76783785,65.67824926 L76.79286074,64.06637763 L74.63518967,62.70009552 L72.31569954,61.59817208 L69.81671109,60.76658545 L67.74208713,60.31801747 L65.55932182,60.05039923 L63.94891603,60.02301085 L61.49955348,60.18317844 L58.75959827,60.72682424 L56.09857951,61.63088542 L53.61074587,62.86812123 L51.81276864,64.0329922 L50.18044007,65.33051849 L48.68772315,66.77413913 L47.34466006,68.35322132 L46.16091467,70.05670851 L45.14575506,71.8730799 L44.30801153,73.79032227 L43.6514481,75.96251733 L43.00446098,78.72945039 L42.53814118,81.556976 L42.25807748,84.41391897 L42.16612956,87.24534641 L42.39630586,91.79441471 L43.06388933,96.16150104 L44.14876414,100.37553911 L45.62918727,104.41692909 L47.48365479,108.26472415 L49.69050393,111.89687234 L52.22766605,115.29055273 L55.07259123,118.4225551 L58.20231021,121.26963003 L61.59362009,123.80876776 L65.22337734,126.01738428 L69.06884218,127.87338781 L73.10805806,129.3550852 L77.32019699,130.44094054 L81.68579094,131.10916354 L86.44497239,131.35026725 L90.68530955,131.1091933 L95.0474974,130.44104791 L99.25743056,129.35524668 L103.29547764,127.8735388 L107.14063649,126.01744035 L110.77077499,123.80864422 L114.16298943,121.26925907 L117.29397764,118.42189883 L120.14039716,115.28961059 L122.67914967,111.89568792 L124.8875704,108.2633821 L126.74349709,104.41555098 L128.22517963,100.37427567 L129.31104164,96.16051483 L129.97927087,91.79386409 L130.20735203,87.29134697 L129.97927087,82.78882888 L129.31104166,78.4221783 L128.22517968,74.20841845 L126.74349701,70.1671428 L124.8875704,66.31931096 L122.67914984,62.68700631 L120.14039716,59.29308341 L117.29397764,56.16079517 L114.16298943,53.31343493 L110.77077462,50.7740495 L107.14063649,48.5652527 L103.29547764,46.70915514 L99.25743055,45.22744637 L95.0474979,44.14164617 L90.68530955,43.4735007 L86.16585935,43.24434273 L82.50005409,43.39835859 L78.88462409,43.85555158 L75.35358228,44.60413576 L71.92039151,45.63346038 L68.59905968,46.93294128 L65.40404525,48.4919337 L62.350116,50.29965074 L59.45221727,52.34513271 L56.72533822,54.61726771 L54.18439786,57.10484947 L51.84415997,59.79667496 L49.7191881,62.68166552 L47.82383807,65.74900631 L46.17230835,68.98828616 L44.77874099,72.38962239 L44.30801153,73.79032227 L43.6514481,75.96251733 "/>
        <path d="M63.08068877,91.86131936 L63.57060884,93.87188803 L64.20190112,95.81554847 L65.04667759,97.67770445 L65.99376334,99.46370405 L67.12655767,101.1164854 L68.35316405,102.70516498 L69.74251642,104.13231032 L71.20586116,105.48346864 L72.82255578,106.66329158 L74.48258296,107.74527539 L76.2994672,108.59023346 L78.11635145,109.43519153 L80.076738,109.96446001 L82.06004099,110.46979558 L84.1001879,110.74180909 L86.174683,110.83366475 L88.2491781,110.74180909 L90.28932501,110.46979558 L92.27608944,110.02541641 L94.21690528,109.43566805 L96.05822672,108.64729368 L97.83632272,107.72744038 L99.52681022,106.66329158 L101.1301095,105.48360301 L102.60684958,104.13231032 L103.98242775,102.70592535 L105.22280833,101.1164854 L106.34193431,99.46685503 L107.30268841,97.67770445 L108.13646967,95.82348108 L108.77875716,93.87188803 L109.19201978,92.05004647 "/>
        <circle cx="108.7303835" cy="75.041154" r="0.5"/>
    </g>
    <g lc:layername="yellow" lc:is_locked="false" lc:is_construction="false" fill="none" stroke="black" stroke-width="1">
        <line x1="119.300475" y1="144.705858" x2="127.8332765" y2="159.4695895"/>
        <line x1="0" y1="87.291347" x2="19.9363285" y2="87.291347"/>
        <line x1="126.735257" y1="16.9651855" x2="119.300475" y2="29.890065"/>
    </g>
</svg>
